<svg width="19" height="23" viewBox="0 0 19 23" fill="none" xmlns="http://www.w3.org/2000/svg">
<path fill-rule="evenodd" clip-rule="evenodd" d="M9.46948 2.21512e-05C11.9784 0.0111235 14.3763 1.01025 16.1303 2.76427C17.8954 4.52938 18.8834 6.91618 18.8723 9.39179V9.44729C18.8057 12.811 16.9185 15.9083 14.565 18.3284C13.2328 19.6939 11.7564 20.9039 10.1467 21.9252C9.71371 22.2916 9.08093 22.2916 8.64797 21.9252C6.26118 20.371 4.15192 18.4172 2.4423 16.1414C0.943617 14.1654 0.088811 11.7897 0 9.31408C0.0222028 4.15194 4.26293 -0.0110792 9.46948 2.21512e-05ZM9.46972 12.5007C10.2579 12.5007 11.0128 12.2009 11.5679 11.657C12.1452 11.0908 12.4682 10.337 12.4682 9.54772C12.4682 7.90472 11.1238 6.58365 9.46972 6.58365C7.81562 6.58365 6.48345 7.90472 6.48345 9.54772C6.48345 11.1696 7.79342 12.4785 9.43642 12.5007H9.46972Z" fill="#67CD45"/>
</svg>
