<svg width="75" height="583" viewBox="0 0 75 583" fill="none" xmlns="http://www.w3.org/2000/svg">
<path d="M45.2141 214.702L2.67847 193.124L2.67847 178.02L60.1069 207.15L74.9997 214.702L60.1069 222.255L2.67847 251.25L2.67847 236.146L45.2141 214.702Z" fill="#EEEEEE"/>
<path d="M22.7139 139.719C22.7139 121.513 34.3924 106.813 48.8566 106.813C50.7852 106.813 52.6066 107.082 54.4281 107.622L54.4281 157.116C59.8923 154.419 63.7495 147.676 63.7495 139.719C63.7495 134.594 62.1423 129.874 59.4638 126.368L67.3923 116.523C72.1066 122.457 74.9994 130.683 74.9994 139.719C74.9994 155.498 66.2137 168.58 54.4281 171.817C52.6066 172.356 50.7852 172.626 48.8566 172.626C34.3924 172.626 22.7139 157.926 22.7139 139.719ZM43.3924 157.251L43.3924 122.187C37.821 125.019 33.9638 131.762 33.9638 139.719C33.9638 147.676 37.821 154.419 43.3924 157.251Z" fill="#EEEEEE"/>
<path d="M27.2143 87.2574C24.2143 81.8628 22.5 75.3894 22.5 68.3765C22.5 59.2058 25.3928 50.9792 30.2143 45.0452L38.1428 55.0251C35.4642 58.3967 33.75 63.1169 33.75 68.3765C33.75 78.761 40.4999 87.2574 48.7499 87.2574H74.9998V101.418H22.5V87.2574H27.2143Z" fill="#EEEEEE"/>
<path d="M0 11.7333H22.3928V0.000179291H33.6428L33.6428 11.7333L74.9998 11.7333V25.8939L33.6428 25.8939V39.6499H22.3928V25.8939H0L0 11.7333Z" fill="#EEEEEE"/>
<path d="M34.0712 536.472C38.2498 529.729 44.7855 525.413 52.0712 525.413C64.714 525.413 74.9997 538.225 74.9997 554.139V583H2.67847L2.67847 554.139C2.67847 541.058 11.1427 530.538 21.5356 530.538C26.357 530.538 30.7498 532.696 34.0712 536.472ZM13.8213 568.974H29.2498L29.2498 554.139C29.2498 548.88 25.8213 544.429 21.5356 544.429C17.2499 544.429 13.8213 548.88 13.8213 554.139L13.8213 568.974ZM63.8568 554.139C63.8568 546.048 58.6069 539.439 52.0712 539.439C45.6426 539.439 40.3926 546.048 40.3926 554.139V568.974H63.8568V554.139Z" fill="#EEEEEE"/>
<path d="M74.9997 520.019H32.1427V505.993H74.9997V520.019ZM13.8213 520.019H2.67847L2.67847 505.993H13.8213L13.8213 520.019Z" fill="#EEEEEE"/>
<path d="M22.5 467.558C22.5 449.351 34.2857 434.516 48.7499 434.516C63.2142 434.516 74.9998 449.351 74.9998 467.558C74.9998 485.764 63.2142 500.599 48.7499 500.599C34.2857 500.599 22.5 485.764 22.5 467.558ZM63.7499 467.558C63.7499 457.173 56.9999 448.677 48.7499 448.677C40.4999 448.677 33.75 457.173 33.75 467.558C33.75 477.942 40.4999 486.439 48.7499 486.439C56.9999 486.439 63.7499 477.942 63.7499 467.558Z" fill="#EEEEEE"/>
<path d="M0 414.961L0 429.121H74.9998V414.961H0Z" fill="#EEEEEE"/>
<path d="M74.9997 409.566H32.1427V395.54H74.9997V409.566ZM13.8213 409.566H2.67847L2.67847 395.54H13.8213L13.8213 409.566Z" fill="#EEEEEE"/>
<path d="M0 362.23H22.3928V350.496H33.6428L33.6428 362.23H74.9998V376.39H33.6428V390.146H22.3928V376.39H0L0 362.23Z" fill="#EEEEEE"/>
<path d="M22.7139 312.195C22.7139 293.988 34.3924 279.288 48.8566 279.288C50.7852 279.288 52.6066 279.558 54.4281 280.098L54.4281 329.592C59.8923 326.895 63.7495 320.152 63.7495 312.195C63.7495 307.07 62.1423 302.35 59.4638 298.844L67.3923 288.999C72.1066 294.933 74.9994 303.159 74.9994 312.195C74.9994 327.974 66.2137 341.056 54.4281 344.292C52.6066 344.832 50.7852 345.102 48.8566 345.102C34.3924 345.102 22.7139 330.401 22.7139 312.195ZM43.3924 329.727L43.3924 294.663C37.821 297.495 33.9638 304.238 33.9638 312.195C33.9638 320.152 37.821 326.895 43.3924 329.727Z" fill="#EEEEEE"/>
</svg>
