<svg width="17" height="24" viewBox="0 0 17 24" fill="none" xmlns="http://www.w3.org/2000/svg">
<path fill-rule="evenodd" clip-rule="evenodd" d="M0.0100787 10.3591C0.0100787 9.62203 0.0189545 8.88496 0.0278714 8.14448C0.0323922 7.76906 0.0369235 7.39277 0.0403141 7.01515C0.0403141 2.95798 2.58011 -0.0001297 6.08744 -0.0001297H10.5926C14.0999 -0.0001297 16.6397 2.95798 16.6397 7.01515C16.6699 8.64036 16.68 10.2656 16.68 11.9025C16.68 13.5394 16.6699 15.188 16.6397 16.8132C16.6397 20.8703 14.0999 23.8285 10.5926 23.8285H6.08744C2.58011 23.8285 0.0403141 20.8703 0.0403141 16.8015C0.020157 15.2698 0 13.7031 0 12.1129L0.0100787 10.3591ZM10 20.875V21.125C10 22.1775 9.12 23 8 23C6.90667 23 6 22.1775 6 21.125V20.875C6 19.85 6.90667 19 8 19C9.12 19 10 19.85 10 20.875ZM2.02172 7.46878C2.01477 7.96599 2.00786 8.46092 2.00786 8.95584L2 10.1335C2 11.2012 2.01571 12.2532 2.03142 13.2816C2.03142 16.0137 4.01088 18 6.74441 18H10.2556C12.9891 18 14.9686 16.0137 14.9686 13.2895C14.9921 12.1982 15 11.0913 15 9.99215C15 8.89303 14.9921 7.80177 14.9686 6.7105C14.9686 3.98626 12.9891 2 10.2556 2H6.74441C4.01088 2 2.03142 3.98626 2.03142 6.7105C2.02878 6.96405 2.02525 7.21671 2.02172 7.46878Z" fill="#67CD45"/>
</svg>
