<svg width="30" height="185" viewBox="0 0 30 185" fill="none" xmlns="http://www.w3.org/2000/svg">
<path d="M18.06 68.1302L1.07031 61.283L1.07031 56.4899L24.0086 65.7337L29.9571 68.1302L24.0086 70.5268L1.07031 79.7277L1.07031 74.9347L18.06 68.1302Z" fill="#EEEEEE"/>
<path d="M9.07275 44.3363C9.07275 38.5589 13.7374 33.8942 19.5148 33.8942C20.2851 33.8942 21.0126 33.9798 21.7402 34.151V49.8568C23.9227 49.0009 25.4634 46.8612 25.4634 44.3363C25.4634 42.71 24.8214 41.2122 23.7515 40.0995L26.9184 36.9755C28.8014 38.8585 29.9569 41.469 29.9569 44.3363C29.9569 49.3433 26.4476 53.4944 21.7402 54.5215C21.0126 54.6927 20.2851 54.7783 19.5148 54.7783C13.7374 54.7783 9.07275 50.1136 9.07275 44.3363ZM17.3322 49.8996V38.7729C15.1069 39.6716 13.5663 41.8113 13.5663 44.3363C13.5663 46.8612 15.1069 49.0009 17.3322 49.8996Z" fill="#EEEEEE"/>
<path d="M10.8708 27.6888C9.67252 25.977 8.98779 23.9228 8.98779 21.6975C8.98779 18.7874 10.1433 16.1769 12.0691 14.2939L15.2359 17.4608C14.166 18.5306 13.4813 20.0285 13.4813 21.6975C13.4813 24.9927 16.1774 27.6888 19.4726 27.6888H29.9575V32.1823H8.98779V27.6888H10.8708Z" fill="#EEEEEE"/>
<path d="M0.000488281 3.72318H8.9447V-1.14441e-05L13.4382 -1.14441e-05V3.72318H29.9572V8.21668L13.4382 8.21668V12.5818L8.9447 12.5818V8.21668H0.000488281L0.000488281 3.72318Z" fill="#EEEEEE"/>
<path d="M13.6093 170.236C15.2783 168.096 17.8889 166.726 20.7989 166.726C25.8488 166.726 29.9571 170.792 29.9571 175.842V185H1.07031L1.07031 175.842C1.07031 171.691 4.45114 168.353 8.60228 168.353C10.5281 168.353 12.2827 169.037 13.6093 170.236ZM5.52102 180.549H11.6835V175.842C11.6835 174.173 10.3141 172.76 8.60228 172.76C6.89047 172.76 5.52102 174.173 5.52102 175.842L5.52102 180.549ZM25.5064 175.842C25.5064 173.274 23.4095 171.177 20.7989 171.177C18.2312 171.177 16.1343 173.274 16.1343 175.842V180.549H25.5064V175.842Z" fill="#EEEEEE"/>
<path d="M29.9571 165.014H12.839V160.564H29.9571V165.014ZM5.52102 165.014H1.07031L1.07031 160.564H5.52102V165.014Z" fill="#EEEEEE"/>
<path d="M8.98779 148.367C8.98779 142.59 13.6953 137.882 19.4726 137.882C25.25 137.882 29.9575 142.59 29.9575 148.367C29.9575 154.145 25.25 158.852 19.4726 158.852C13.6953 158.852 8.98779 154.145 8.98779 148.367ZM25.464 148.367C25.464 145.072 22.7679 142.376 19.4726 142.376C16.1774 142.376 13.4813 145.072 13.4813 148.367C13.4813 151.663 16.1774 154.359 19.4726 154.359C22.7679 154.359 25.464 151.663 25.464 148.367Z" fill="#EEEEEE"/>
<path d="M0.000488281 131.677L0.000488281 136.17H29.9572V131.677H0.000488281Z" fill="#EEEEEE"/>
<path d="M29.9571 129.965H12.839V125.514H29.9571V129.965ZM5.52102 129.965H1.07031L1.07031 125.514H5.52102V129.965Z" fill="#EEEEEE"/>
<path d="M0.000488281 114.944H8.9447V111.221H13.4382V114.944H29.9572V119.438H13.4382V123.803H8.9447V119.438H0.000488281L0.000488281 114.944Z" fill="#EEEEEE"/>
<path d="M9.07275 99.0669C9.07275 93.2895 13.7374 88.6248 19.5148 88.6248C20.2851 88.6248 21.0126 88.7104 21.7402 88.8816V104.587C23.9227 103.732 25.4634 101.592 25.4634 99.0669C25.4634 97.4407 24.8214 95.9428 23.7515 94.8302L26.9184 91.7061C28.8014 93.5891 29.9569 96.1996 29.9569 99.0669C29.9569 104.074 26.4476 108.225 21.7402 109.252C21.0126 109.423 20.2851 109.509 19.5148 109.509C13.7374 109.509 9.07275 104.844 9.07275 99.0669ZM17.3322 104.63V93.5035C15.1069 94.4022 13.5663 96.542 13.5663 99.0669C13.5663 101.592 15.1069 103.732 17.3322 104.63Z" fill="#EEEEEE"/>
</svg>
