<svg width="51" height="318" viewBox="0 0 51 318" fill="none" xmlns="http://www.w3.org/2000/svg">
<path d="M31.0428 117.11L1.83887 105.341L1.83887 97.1017L41.2679 112.991L51.493 117.11L41.2679 121.23L1.83887 137.046L1.83887 128.807L31.0428 117.11Z" fill="#EEEEEE"/>
<path d="M15.5952 76.2105C15.5952 66.2797 23.6134 58.2615 33.5443 58.2615C34.8684 58.2615 36.1189 58.4086 37.3695 58.7029V85.7C41.1211 84.2288 43.7693 80.5507 43.7693 76.2105C43.7693 73.4152 42.6659 70.8405 40.8269 68.9279L46.2704 63.5579C49.5071 66.7946 51.4933 71.2819 51.4933 76.2105C51.4933 84.8172 45.4612 91.9527 37.3695 93.7182C36.1189 94.0125 34.8684 94.1596 33.5443 94.1596C23.6134 94.1596 15.5952 86.1414 15.5952 76.2105ZM29.7926 85.7735L29.7926 66.6475C25.9674 68.1923 23.3192 71.8704 23.3192 76.2105C23.3192 80.5507 25.9674 84.2288 29.7926 85.7735Z" fill="#EEEEEE"/>
<path d="M18.685 47.595C16.6252 44.6525 15.4482 41.1216 15.4482 37.2964C15.4482 32.2942 17.4344 27.8069 20.7447 24.5702L26.1882 30.0138C24.3492 31.8528 23.1722 34.4275 23.1722 37.2964C23.1722 42.9606 27.8066 47.595 33.4708 47.595H51.4935V55.319H15.4482L15.4482 47.595H18.685Z" fill="#EEEEEE"/>
<path d="M0 6.39997H15.3744L15.3744 0.000104904H23.0984V6.39997L51.4932 6.39997V14.1239L23.0984 14.1239V21.6272H15.3744L15.3744 14.1239H0L0 6.39997Z" fill="#EEEEEE"/>
<path d="M23.3924 292.621C26.2613 288.943 30.7486 286.589 35.7508 286.589C44.4311 286.589 51.493 293.578 51.493 302.258V318H1.83887L1.83887 302.258C1.83887 295.122 7.65024 289.385 14.7857 289.385C18.096 289.385 21.112 290.562 23.3924 292.621ZM9.48928 310.35H20.0822V302.258C20.0822 299.389 17.7282 296.961 14.7857 296.961C11.8433 296.961 9.48928 299.389 9.48928 302.258L9.48928 310.35ZM43.8426 302.258C43.8426 297.844 40.238 294.24 35.7508 294.24C31.3371 294.24 27.7326 297.844 27.7326 302.258V310.35H43.8426V302.258Z" fill="#EEEEEE"/>
<path d="M51.493 283.647H22.0683V275.996H51.493V283.647ZM9.48928 283.647H1.83887L1.83887 275.996H9.48928V283.647Z" fill="#EEEEEE"/>
<path d="M15.4482 255.032C15.4482 245.101 23.54 237.009 33.4708 237.009C43.4017 237.009 51.4935 245.101 51.4935 255.032C51.4935 264.962 43.4017 273.054 33.4708 273.054C23.54 273.054 15.4482 264.962 15.4482 255.032ZM43.7695 255.032C43.7695 249.367 39.1351 244.733 33.4708 244.733C27.8066 244.733 23.1722 249.367 23.1722 255.032C23.1722 260.696 27.8066 265.33 33.4708 265.33C39.1351 265.33 43.7695 260.696 43.7695 255.032Z" fill="#EEEEEE"/>
<path d="M0 226.342L0 234.066H51.4932V226.342H0Z" fill="#EEEEEE"/>
<path d="M51.493 223.4H22.0683V215.749H51.493V223.4ZM9.48928 223.4H1.83887L1.83887 215.749H9.48928V223.4Z" fill="#EEEEEE"/>
<path d="M0 197.58H15.3744L15.3744 191.18H23.0984V197.58H51.4932V205.304H23.0984V212.807H15.3744L15.3744 205.304H0L0 197.58Z" fill="#EEEEEE"/>
<path d="M15.5952 170.288C15.5952 160.357 23.6134 152.339 33.5443 152.339C34.8684 152.339 36.1189 152.486 37.3695 152.78V179.778C41.1211 178.306 43.7693 174.628 43.7693 170.288C43.7693 167.493 42.6659 164.918 40.8269 163.006L46.2704 157.636C49.5071 160.872 51.4933 165.36 51.4933 170.288C51.4933 178.895 45.4612 186.03 37.3695 187.796C36.1189 188.09 34.8684 188.237 33.5443 188.237C23.6134 188.237 15.5952 180.219 15.5952 170.288ZM29.7926 179.851L29.7926 160.725C25.9674 162.27 23.3192 165.948 23.3192 170.288C23.3192 174.628 25.9674 178.306 29.7926 179.851Z" fill="#EEEEEE"/>
</svg>
