<svg width="185" height="188" viewBox="0 0 185 188" fill="none" xmlns="http://www.w3.org/2000/svg">
<g opacity="0.1">
<circle cx="43.7569" cy="3.36934" r="2.65694" transform="rotate(90 43.7569 3.36934)" fill="#595959"/>
<circle cx="140.564" cy="3.36934" r="2.65694" transform="rotate(90 140.564 3.36934)" fill="#595959"/>
<circle cx="43.7569" cy="114.781" r="2.65694" transform="rotate(90 43.7569 114.781)" fill="#595959"/>
<circle cx="140.564" cy="114.781" r="2.65694" transform="rotate(90 140.564 114.781)" fill="#595959"/>
<circle cx="43.7569" cy="59.0744" r="2.65694" transform="rotate(90 43.7569 59.0744)" fill="#595959"/>
<circle cx="140.564" cy="59.0744" r="2.65694" transform="rotate(90 140.564 59.0744)" fill="#595959"/>
<circle cx="43.7569" cy="170.486" r="2.65694" transform="rotate(90 43.7569 170.486)" fill="#595959"/>
<circle cx="140.564" cy="170.486" r="2.65694" transform="rotate(90 140.564 170.486)" fill="#595959"/>
<circle cx="43.7569" cy="31.2219" r="2.65694" transform="rotate(90 43.7569 31.2219)" fill="#595959"/>
<circle cx="140.564" cy="31.2219" r="2.65694" transform="rotate(90 140.564 31.2219)" fill="#595959"/>
<circle cx="43.7569" cy="142.633" r="2.65694" transform="rotate(90 43.7569 142.633)" fill="#595959"/>
<circle cx="140.564" cy="142.633" r="2.65694" transform="rotate(90 140.564 142.633)" fill="#595959"/>
<circle cx="43.7569" cy="86.9282" r="2.65694" transform="rotate(90 43.7569 86.9282)" fill="#595959"/>
<circle cx="140.564" cy="86.9282" r="2.65694" transform="rotate(90 140.564 86.9282)" fill="#595959"/>
<circle cx="71.6124" cy="3.36934" r="2.65694" transform="rotate(90 71.6124 3.36934)" fill="#595959"/>
<circle cx="168.417" cy="3.36934" r="2.65694" transform="rotate(90 168.417 3.36934)" fill="#595959"/>
<circle cx="71.6124" cy="114.781" r="2.65694" transform="rotate(90 71.6124 114.781)" fill="#595959"/>
<circle cx="168.417" cy="114.781" r="2.65694" transform="rotate(90 168.417 114.781)" fill="#595959"/>
<circle cx="71.6124" cy="59.0744" r="2.65694" transform="rotate(90 71.6124 59.0744)" fill="#595959"/>
<circle cx="168.417" cy="59.0744" r="2.65694" transform="rotate(90 168.417 59.0744)" fill="#595959"/>
<circle cx="71.6124" cy="170.486" r="2.65694" transform="rotate(90 71.6124 170.486)" fill="#595959"/>
<circle cx="168.417" cy="170.486" r="2.65694" transform="rotate(90 168.417 170.486)" fill="#595959"/>
<circle cx="71.6124" cy="31.2219" r="2.65694" transform="rotate(90 71.6124 31.2219)" fill="#595959"/>
<circle cx="168.417" cy="31.2219" r="2.65694" transform="rotate(90 168.417 31.2219)" fill="#595959"/>
<circle cx="71.6124" cy="142.633" r="2.65694" transform="rotate(90 71.6124 142.633)" fill="#595959"/>
<circle cx="168.417" cy="142.633" r="2.65694" transform="rotate(90 168.417 142.633)" fill="#595959"/>
<circle cx="71.6124" cy="86.9282" r="2.65694" transform="rotate(90 71.6124 86.9282)" fill="#595959"/>
<circle cx="168.417" cy="86.9282" r="2.65694" transform="rotate(90 168.417 86.9282)" fill="#595959"/>
<circle cx="16.584" cy="3.36934" r="2.65694" transform="rotate(90 16.584 3.36934)" fill="#595959"/>
<circle cx="113.39" cy="3.36934" r="2.65694" transform="rotate(90 113.39 3.36934)" fill="#595959"/>
<circle cx="16.584" cy="114.781" r="2.65694" transform="rotate(90 16.584 114.781)" fill="#595959"/>
<circle cx="113.39" cy="114.781" r="2.65694" transform="rotate(90 113.39 114.781)" fill="#595959"/>
<circle cx="16.584" cy="59.0744" r="2.65694" transform="rotate(90 16.584 59.0744)" fill="#595959"/>
<circle cx="113.39" cy="59.0744" r="2.65694" transform="rotate(90 113.39 59.0744)" fill="#595959"/>
<circle cx="16.584" cy="170.486" r="2.65694" transform="rotate(90 16.584 170.486)" fill="#595959"/>
<circle cx="113.39" cy="170.486" r="2.65694" transform="rotate(90 113.39 170.486)" fill="#595959"/>
<circle cx="16.584" cy="31.2219" r="2.65694" transform="rotate(90 16.584 31.2219)" fill="#595959"/>
<circle cx="113.39" cy="31.2219" r="2.65694" transform="rotate(90 113.39 31.2219)" fill="#595959"/>
<circle cx="16.584" cy="142.633" r="2.65694" transform="rotate(90 16.584 142.633)" fill="#595959"/>
<circle cx="113.39" cy="142.633" r="2.65694" transform="rotate(90 113.39 142.633)" fill="#595959"/>
<circle cx="16.584" cy="86.9282" r="2.65694" transform="rotate(90 16.584 86.9282)" fill="#595959"/>
<circle cx="113.39" cy="86.9282" r="2.65694" transform="rotate(90 113.39 86.9282)" fill="#595959"/>
<circle cx="85.5369" cy="3.36934" r="2.65694" transform="rotate(90 85.5369 3.36934)" fill="#595959"/>
<circle cx="182.343" cy="3.36934" r="2.65694" transform="rotate(90 182.343 3.36934)" fill="#595959"/>
<circle cx="85.5369" cy="114.781" r="2.65694" transform="rotate(90 85.5369 114.781)" fill="#595959"/>
<circle cx="182.343" cy="114.781" r="2.65694" transform="rotate(90 182.343 114.781)" fill="#595959"/>
<circle cx="85.5369" cy="59.0744" r="2.65694" transform="rotate(90 85.5369 59.0744)" fill="#595959"/>
<circle cx="182.343" cy="59.0744" r="2.65694" transform="rotate(90 182.343 59.0744)" fill="#595959"/>
<circle cx="85.5369" cy="170.486" r="2.65694" transform="rotate(90 85.5369 170.486)" fill="#595959"/>
<circle cx="182.343" cy="170.486" r="2.65694" transform="rotate(90 182.343 170.486)" fill="#595959"/>
<circle cx="85.5369" cy="31.2219" r="2.65694" transform="rotate(90 85.5369 31.2219)" fill="#595959"/>
<circle cx="182.343" cy="31.2219" r="2.65694" transform="rotate(90 182.343 31.2219)" fill="#595959"/>
<circle cx="85.5369" cy="142.633" r="2.65694" transform="rotate(90 85.5369 142.633)" fill="#595959"/>
<circle cx="182.343" cy="142.633" r="2.65694" transform="rotate(90 182.343 142.633)" fill="#595959"/>
<circle cx="85.5369" cy="86.9282" r="2.65694" transform="rotate(90 85.5369 86.9282)" fill="#595959"/>
<circle cx="182.343" cy="86.9282" r="2.65694" transform="rotate(90 182.343 86.9282)" fill="#595959"/>
<circle cx="29.8324" cy="3.36934" r="2.65694" transform="rotate(90 29.8324 3.36934)" fill="#595959"/>
<circle cx="126.637" cy="3.36934" r="2.65694" transform="rotate(90 126.637 3.36934)" fill="#595959"/>
<circle cx="29.8324" cy="114.781" r="2.65694" transform="rotate(90 29.8324 114.781)" fill="#595959"/>
<circle cx="126.637" cy="114.781" r="2.65694" transform="rotate(90 126.637 114.781)" fill="#595959"/>
<circle cx="29.8324" cy="59.0744" r="2.65694" transform="rotate(90 29.8324 59.0744)" fill="#595959"/>
<circle cx="126.637" cy="59.0744" r="2.65694" transform="rotate(90 126.637 59.0744)" fill="#595959"/>
<circle cx="29.8324" cy="170.486" r="2.65694" transform="rotate(90 29.8324 170.486)" fill="#595959"/>
<circle cx="126.637" cy="170.486" r="2.65694" transform="rotate(90 126.637 170.486)" fill="#595959"/>
<circle cx="29.8324" cy="31.2219" r="2.65694" transform="rotate(90 29.8324 31.2219)" fill="#595959"/>
<circle cx="126.637" cy="31.2219" r="2.65694" transform="rotate(90 126.637 31.2219)" fill="#595959"/>
<circle cx="29.8324" cy="142.633" r="2.65694" transform="rotate(90 29.8324 142.633)" fill="#595959"/>
<circle cx="126.637" cy="142.633" r="2.65694" transform="rotate(90 126.637 142.633)" fill="#595959"/>
<circle cx="29.8324" cy="86.9282" r="2.65694" transform="rotate(90 29.8324 86.9282)" fill="#595959"/>
<circle cx="126.637" cy="86.9282" r="2.65694" transform="rotate(90 126.637 86.9282)" fill="#595959"/>
<circle cx="57.6853" cy="3.36934" r="2.65694" transform="rotate(90 57.6853 3.36934)" fill="#595959"/>
<circle cx="154.49" cy="3.36934" r="2.65694" transform="rotate(90 154.49 3.36934)" fill="#595959"/>
<circle cx="57.6853" cy="114.781" r="2.65694" transform="rotate(90 57.6853 114.781)" fill="#595959"/>
<circle cx="154.49" cy="114.781" r="2.65694" transform="rotate(90 154.49 114.781)" fill="#595959"/>
<circle cx="57.6853" cy="59.0744" r="2.65694" transform="rotate(90 57.6853 59.0744)" fill="#595959"/>
<circle cx="154.49" cy="59.0744" r="2.65694" transform="rotate(90 154.49 59.0744)" fill="#595959"/>
<circle cx="57.6853" cy="170.486" r="2.65694" transform="rotate(90 57.6853 170.486)" fill="#595959"/>
<circle cx="154.49" cy="170.486" r="2.65694" transform="rotate(90 154.49 170.486)" fill="#595959"/>
<circle cx="57.6853" cy="31.2219" r="2.65694" transform="rotate(90 57.6853 31.2219)" fill="#595959"/>
<circle cx="154.49" cy="31.2219" r="2.65694" transform="rotate(90 154.49 31.2219)" fill="#595959"/>
<circle cx="57.6853" cy="142.633" r="2.65694" transform="rotate(90 57.6853 142.633)" fill="#595959"/>
<circle cx="154.49" cy="142.633" r="2.65694" transform="rotate(90 154.49 142.633)" fill="#595959"/>
<circle cx="57.6853" cy="86.9282" r="2.65694" transform="rotate(90 57.6853 86.9282)" fill="#595959"/>
<circle cx="154.49" cy="86.9282" r="2.65694" transform="rotate(90 154.49 86.9282)" fill="#595959"/>
<circle cx="2.65691" cy="3.36934" r="2.65694" transform="rotate(90 2.65691 3.36934)" fill="#595959"/>
<circle cx="99.4639" cy="3.36934" r="2.65694" transform="rotate(90 99.4639 3.36934)" fill="#595959"/>
<circle cx="2.65691" cy="114.781" r="2.65694" transform="rotate(90 2.65691 114.781)" fill="#595959"/>
<circle cx="99.4639" cy="114.781" r="2.65694" transform="rotate(90 99.4639 114.781)" fill="#595959"/>
<circle cx="2.65691" cy="59.0744" r="2.65694" transform="rotate(90 2.65691 59.0744)" fill="#595959"/>
<circle cx="99.4639" cy="59.0744" r="2.65694" transform="rotate(90 99.4639 59.0744)" fill="#595959"/>
<circle cx="2.65691" cy="170.486" r="2.65694" transform="rotate(90 2.65691 170.486)" fill="#595959"/>
<circle cx="99.4639" cy="170.486" r="2.65694" transform="rotate(90 99.4639 170.486)" fill="#595959"/>
<circle cx="2.65691" cy="31.2219" r="2.65694" transform="rotate(90 2.65691 31.2219)" fill="#595959"/>
<circle cx="99.4639" cy="31.2219" r="2.65694" transform="rotate(90 99.4639 31.2219)" fill="#595959"/>
<circle cx="2.65691" cy="142.633" r="2.65694" transform="rotate(90 2.65691 142.633)" fill="#595959"/>
<circle cx="99.4639" cy="142.633" r="2.65694" transform="rotate(90 99.4639 142.633)" fill="#595959"/>
<circle cx="2.65691" cy="86.9282" r="2.65694" transform="rotate(90 2.65691 86.9282)" fill="#595959"/>
<circle cx="99.4639" cy="86.9282" r="2.65694" transform="rotate(90 99.4639 86.9282)" fill="#595959"/>
<circle cx="43.7569" cy="17.2958" r="2.65694" transform="rotate(90 43.7569 17.2958)" fill="#595959"/>
<circle cx="140.564" cy="17.2958" r="2.65694" transform="rotate(90 140.564 17.2958)" fill="#595959"/>
<circle cx="43.7569" cy="128.707" r="2.65694" transform="rotate(90 43.7569 128.707)" fill="#595959"/>
<circle cx="140.564" cy="128.707" r="2.65694" transform="rotate(90 140.564 128.707)" fill="#595959"/>
<circle cx="43.7569" cy="73.0006" r="2.65694" transform="rotate(90 43.7569 73.0006)" fill="#595959"/>
<circle cx="140.564" cy="73.0006" r="2.65694" transform="rotate(90 140.564 73.0006)" fill="#595959"/>
<circle cx="43.7569" cy="184.412" r="2.65694" transform="rotate(90 43.7569 184.412)" fill="#595959"/>
<circle cx="140.564" cy="184.412" r="2.65694" transform="rotate(90 140.564 184.412)" fill="#595959"/>
<circle cx="43.7569" cy="45.1483" r="2.65694" transform="rotate(90 43.7569 45.1483)" fill="#595959"/>
<circle cx="140.564" cy="45.1483" r="2.65694" transform="rotate(90 140.564 45.1483)" fill="#595959"/>
<circle cx="43.7569" cy="156.559" r="2.65694" transform="rotate(90 43.7569 156.559)" fill="#595959"/>
<circle cx="140.564" cy="156.559" r="2.65694" transform="rotate(90 140.564 156.559)" fill="#595959"/>
<circle cx="43.7569" cy="100.853" r="2.65694" transform="rotate(90 43.7569 100.853)" fill="#595959"/>
<circle cx="140.564" cy="100.853" r="2.65694" transform="rotate(90 140.564 100.853)" fill="#595959"/>
<circle cx="71.6124" cy="17.2958" r="2.65694" transform="rotate(90 71.6124 17.2958)" fill="#595959"/>
<circle cx="168.417" cy="17.2958" r="2.65694" transform="rotate(90 168.417 17.2958)" fill="#595959"/>
<circle cx="71.6124" cy="128.707" r="2.65694" transform="rotate(90 71.6124 128.707)" fill="#595959"/>
<circle cx="168.417" cy="128.707" r="2.65694" transform="rotate(90 168.417 128.707)" fill="#595959"/>
<circle cx="71.6124" cy="73.0006" r="2.65694" transform="rotate(90 71.6124 73.0006)" fill="#595959"/>
<circle cx="168.417" cy="73.0006" r="2.65694" transform="rotate(90 168.417 73.0006)" fill="#595959"/>
<circle cx="71.6124" cy="184.412" r="2.65694" transform="rotate(90 71.6124 184.412)" fill="#595959"/>
<circle cx="168.417" cy="184.412" r="2.65694" transform="rotate(90 168.417 184.412)" fill="#595959"/>
<circle cx="71.6124" cy="45.1483" r="2.65694" transform="rotate(90 71.6124 45.1483)" fill="#595959"/>
<circle cx="168.417" cy="45.1483" r="2.65694" transform="rotate(90 168.417 45.1483)" fill="#595959"/>
<circle cx="71.6124" cy="156.559" r="2.65694" transform="rotate(90 71.6124 156.559)" fill="#595959"/>
<circle cx="168.417" cy="156.559" r="2.65694" transform="rotate(90 168.417 156.559)" fill="#595959"/>
<circle cx="71.6124" cy="100.853" r="2.65694" transform="rotate(90 71.6124 100.853)" fill="#595959"/>
<circle cx="168.417" cy="100.853" r="2.65694" transform="rotate(90 168.417 100.853)" fill="#595959"/>
<circle cx="16.584" cy="17.2958" r="2.65694" transform="rotate(90 16.584 17.2958)" fill="#595959"/>
<circle cx="113.39" cy="17.2958" r="2.65694" transform="rotate(90 113.39 17.2958)" fill="#595959"/>
<circle cx="16.584" cy="128.707" r="2.65694" transform="rotate(90 16.584 128.707)" fill="#595959"/>
<circle cx="113.39" cy="128.707" r="2.65694" transform="rotate(90 113.39 128.707)" fill="#595959"/>
<circle cx="16.584" cy="73.0006" r="2.65694" transform="rotate(90 16.584 73.0006)" fill="#595959"/>
<circle cx="113.39" cy="73.0006" r="2.65694" transform="rotate(90 113.39 73.0006)" fill="#595959"/>
<circle cx="16.584" cy="184.412" r="2.65694" transform="rotate(90 16.584 184.412)" fill="#595959"/>
<circle cx="113.39" cy="184.412" r="2.65694" transform="rotate(90 113.39 184.412)" fill="#595959"/>
<circle cx="16.584" cy="45.1483" r="2.65694" transform="rotate(90 16.584 45.1483)" fill="#595959"/>
<circle cx="113.39" cy="45.1483" r="2.65694" transform="rotate(90 113.39 45.1483)" fill="#595959"/>
<circle cx="16.584" cy="156.559" r="2.65694" transform="rotate(90 16.584 156.559)" fill="#595959"/>
<circle cx="113.39" cy="156.559" r="2.65694" transform="rotate(90 113.39 156.559)" fill="#595959"/>
<circle cx="16.584" cy="100.853" r="2.65694" transform="rotate(90 16.584 100.853)" fill="#595959"/>
<circle cx="113.39" cy="100.853" r="2.65694" transform="rotate(90 113.39 100.853)" fill="#595959"/>
<circle cx="85.5369" cy="17.2958" r="2.65694" transform="rotate(90 85.5369 17.2958)" fill="#595959"/>
<circle cx="182.343" cy="17.2958" r="2.65694" transform="rotate(90 182.343 17.2958)" fill="#595959"/>
<circle cx="85.5369" cy="128.707" r="2.65694" transform="rotate(90 85.5369 128.707)" fill="#595959"/>
<circle cx="182.343" cy="128.707" r="2.65694" transform="rotate(90 182.343 128.707)" fill="#595959"/>
<circle cx="85.5369" cy="73.0006" r="2.65694" transform="rotate(90 85.5369 73.0006)" fill="#595959"/>
<circle cx="182.343" cy="73.0006" r="2.65694" transform="rotate(90 182.343 73.0006)" fill="#595959"/>
<circle cx="85.5369" cy="184.412" r="2.65694" transform="rotate(90 85.5369 184.412)" fill="#595959"/>
<circle cx="182.343" cy="184.412" r="2.65694" transform="rotate(90 182.343 184.412)" fill="#595959"/>
<circle cx="85.5369" cy="45.1483" r="2.65694" transform="rotate(90 85.5369 45.1483)" fill="#595959"/>
<circle cx="182.343" cy="45.1483" r="2.65694" transform="rotate(90 182.343 45.1483)" fill="#595959"/>
<circle cx="85.5369" cy="156.559" r="2.65694" transform="rotate(90 85.5369 156.559)" fill="#595959"/>
<circle cx="182.343" cy="156.559" r="2.65694" transform="rotate(90 182.343 156.559)" fill="#595959"/>
<circle cx="85.5369" cy="100.853" r="2.65694" transform="rotate(90 85.5369 100.853)" fill="#595959"/>
<circle cx="182.343" cy="100.853" r="2.65694" transform="rotate(90 182.343 100.853)" fill="#595959"/>
<circle cx="29.8324" cy="17.2958" r="2.65694" transform="rotate(90 29.8324 17.2958)" fill="#595959"/>
<circle cx="126.637" cy="17.2958" r="2.65694" transform="rotate(90 126.637 17.2958)" fill="#595959"/>
<circle cx="29.8324" cy="128.707" r="2.65694" transform="rotate(90 29.8324 128.707)" fill="#595959"/>
<circle cx="126.637" cy="128.707" r="2.65694" transform="rotate(90 126.637 128.707)" fill="#595959"/>
<circle cx="29.8324" cy="73.0006" r="2.65694" transform="rotate(90 29.8324 73.0006)" fill="#595959"/>
<circle cx="126.637" cy="73.0006" r="2.65694" transform="rotate(90 126.637 73.0006)" fill="#595959"/>
<circle cx="29.8324" cy="184.412" r="2.65694" transform="rotate(90 29.8324 184.412)" fill="#595959"/>
<circle cx="126.637" cy="184.412" r="2.65694" transform="rotate(90 126.637 184.412)" fill="#595959"/>
<circle cx="29.8324" cy="45.1483" r="2.65694" transform="rotate(90 29.8324 45.1483)" fill="#595959"/>
<circle cx="126.637" cy="45.1483" r="2.65694" transform="rotate(90 126.637 45.1483)" fill="#595959"/>
<circle cx="29.8324" cy="156.559" r="2.65694" transform="rotate(90 29.8324 156.559)" fill="#595959"/>
<circle cx="126.637" cy="156.559" r="2.65694" transform="rotate(90 126.637 156.559)" fill="#595959"/>
<circle cx="29.8324" cy="100.853" r="2.65694" transform="rotate(90 29.8324 100.853)" fill="#595959"/>
<circle cx="126.637" cy="100.853" r="2.65694" transform="rotate(90 126.637 100.853)" fill="#595959"/>
<circle cx="57.6853" cy="17.2958" r="2.65694" transform="rotate(90 57.6853 17.2958)" fill="#595959"/>
<circle cx="154.49" cy="17.2958" r="2.65694" transform="rotate(90 154.49 17.2958)" fill="#595959"/>
<circle cx="57.6853" cy="128.707" r="2.65694" transform="rotate(90 57.6853 128.707)" fill="#595959"/>
<circle cx="154.49" cy="128.707" r="2.65694" transform="rotate(90 154.49 128.707)" fill="#595959"/>
<circle cx="57.6853" cy="73.0006" r="2.65694" transform="rotate(90 57.6853 73.0006)" fill="#595959"/>
<circle cx="154.49" cy="73.0006" r="2.65694" transform="rotate(90 154.49 73.0006)" fill="#595959"/>
<circle cx="57.6853" cy="184.412" r="2.65694" transform="rotate(90 57.6853 184.412)" fill="#595959"/>
<circle cx="154.49" cy="184.412" r="2.65694" transform="rotate(90 154.49 184.412)" fill="#595959"/>
<circle cx="57.6853" cy="45.1483" r="2.65694" transform="rotate(90 57.6853 45.1483)" fill="#595959"/>
<circle cx="154.49" cy="45.1483" r="2.65694" transform="rotate(90 154.49 45.1483)" fill="#595959"/>
<circle cx="57.6853" cy="156.559" r="2.65694" transform="rotate(90 57.6853 156.559)" fill="#595959"/>
<circle cx="154.49" cy="156.559" r="2.65694" transform="rotate(90 154.49 156.559)" fill="#595959"/>
<circle cx="57.6853" cy="100.853" r="2.65694" transform="rotate(90 57.6853 100.853)" fill="#595959"/>
<circle cx="154.49" cy="100.853" r="2.65694" transform="rotate(90 154.49 100.853)" fill="#595959"/>
<circle cx="2.65691" cy="17.2958" r="2.65694" transform="rotate(90 2.65691 17.2958)" fill="#595959"/>
<circle cx="99.4639" cy="17.2958" r="2.65694" transform="rotate(90 99.4639 17.2958)" fill="#595959"/>
<circle cx="2.65691" cy="128.707" r="2.65694" transform="rotate(90 2.65691 128.707)" fill="#595959"/>
<circle cx="99.4639" cy="128.707" r="2.65694" transform="rotate(90 99.4639 128.707)" fill="#595959"/>
<circle cx="2.65691" cy="73.0006" r="2.65694" transform="rotate(90 2.65691 73.0006)" fill="#595959"/>
<circle cx="99.4639" cy="73.0006" r="2.65694" transform="rotate(90 99.4639 73.0006)" fill="#595959"/>
<circle cx="2.65691" cy="184.412" r="2.65694" transform="rotate(90 2.65691 184.412)" fill="#595959"/>
<circle cx="99.4639" cy="184.412" r="2.65694" transform="rotate(90 99.4639 184.412)" fill="#595959"/>
<circle cx="2.65691" cy="45.1483" r="2.65694" transform="rotate(90 2.65691 45.1483)" fill="#595959"/>
<circle cx="99.4639" cy="45.1483" r="2.65694" transform="rotate(90 99.4639 45.1483)" fill="#595959"/>
<circle cx="2.65691" cy="156.559" r="2.65694" transform="rotate(90 2.65691 156.559)" fill="#595959"/>
<circle cx="99.4639" cy="156.559" r="2.65694" transform="rotate(90 99.4639 156.559)" fill="#595959"/>
<circle cx="2.65691" cy="100.853" r="2.65694" transform="rotate(90 2.65691 100.853)" fill="#595959"/>
<circle cx="99.4639" cy="100.853" r="2.65694" transform="rotate(90 99.4639 100.853)" fill="#595959"/>
</g>
</svg>
