<svg width="23" height="20" viewBox="0 0 23 20" fill="none" xmlns="http://www.w3.org/2000/svg">
<path fill-rule="evenodd" clip-rule="evenodd" d="M16.5989 0C18.0889 0 19.5222 0.588889 20.5767 1.64556C21.6322 2.7 22.2222 4.12222 22.2222 5.61111V14.3889C22.2222 17.4889 19.7 20 16.5989 20H5.62222C2.52111 20 0 17.4889 0 14.3889V5.61111C0 2.51111 2.51 0 5.62222 0H16.5989ZM18.367 7.26649L18.4559 7.1776C18.7215 6.85538 18.7215 6.38871 18.4437 6.06649C18.2892 5.90093 18.077 5.79982 17.8559 5.7776C17.6226 5.76538 17.4004 5.84427 17.2326 5.99982L12.2226 9.99982C11.5781 10.5343 10.6548 10.5343 10.0004 9.99982L5.00035 5.99982C4.6548 5.74427 4.17702 5.7776 3.88924 6.0776C3.58924 6.3776 3.55591 6.85538 3.81035 7.18871L3.95591 7.33316L9.01146 11.2776C9.63369 11.7665 10.3881 12.0332 11.1781 12.0332C11.9659 12.0332 12.7337 11.7665 13.3548 11.2776L18.367 7.26649Z" fill="#67CD45"/>
</svg>
