<svg width="17" height="24" viewBox="0 0 17 24" fill="none" xmlns="http://www.w3.org/2000/svg">
<path fill-rule="evenodd" clip-rule="evenodd" d="M0.0100787 10.3593C0.0100787 9.6222 0.0189545 8.88513 0.0278714 8.14464C0.0323922 7.76922 0.0369235 7.39293 0.0403141 7.01532C0.0403141 2.95814 2.58011 3.24249e-05 6.08744 3.24249e-05H10.5926C14.0999 3.24249e-05 16.6397 2.95814 16.6397 7.01532C16.6699 8.64052 16.68 10.2657 16.68 11.9026C16.68 13.5395 16.6699 15.1881 16.6397 16.8133C16.6397 20.8705 14.0999 23.8286 10.5926 23.8286H6.08744C2.58011 23.8286 0.0403141 20.8705 0.0403141 16.8016C0.020157 15.27 0 13.7032 0 12.1131L0.0100787 10.3593ZM10 20.8752V21.1252C10 22.1777 9.12 23.0002 8 23.0002C6.90667 23.0002 6 22.1777 6 21.1252V20.8752C6 19.8502 6.90667 19.0002 8 19.0002C9.12 19.0002 10 19.8502 10 20.8752ZM2.02172 7.46894C2.01477 7.96616 2.00786 8.46108 2.00786 8.956L2 10.1336C2 11.2013 2.01571 12.2534 2.03142 13.2818C2.03142 16.0139 4.01088 18.0002 6.74441 18.0002H10.2556C12.9891 18.0002 14.9686 16.0139 14.9686 13.2897C14.9921 12.1984 15 11.0914 15 9.99231C15 8.8932 14.9921 7.80193 14.9686 6.71066C14.9686 3.98642 12.9891 2.00016 10.2556 2.00016H6.74441C4.01088 2.00016 2.03142 3.98642 2.03142 6.71066C2.02878 6.96421 2.02525 7.21687 2.02172 7.46894Z" fill="#67CD45"/>
</svg>
