<svg width="160" height="83" viewBox="0 0 160 83" fill="none" xmlns="http://www.w3.org/2000/svg">
<path d="M111.499 43.3622L116.208 31.6788H119.504L113.147 47.4528L111.499 51.5434L109.851 47.4528L103.524 31.6788H106.82L111.499 43.3622Z" fill="#67CD45"/>
<path d="M127.862 37.1821C131.835 37.1821 135.042 40.3899 135.042 44.3628C135.042 44.8925 134.983 45.3928 134.866 45.8931H124.065C124.654 47.394 126.125 48.4534 127.862 48.4534C128.98 48.4534 130.01 48.012 130.775 47.2763L132.923 49.454C131.629 50.7489 129.833 51.5435 127.862 51.5435C124.418 51.5435 121.564 49.1303 120.857 45.8931C120.74 45.3928 120.681 44.8925 120.681 44.3628C120.681 40.3899 123.889 37.1821 127.862 37.1821ZM124.036 42.8619H131.687C131.069 41.3316 129.598 40.2722 127.862 40.2722C126.125 40.2722 124.654 41.3316 124.036 42.8619Z" fill="#67CD45"/>
<path d="M139.309 38.418C140.486 37.594 141.899 37.1232 143.429 37.1232C145.431 37.1232 147.226 37.9178 148.521 39.2421L146.343 41.4198C145.607 40.6841 144.577 40.2132 143.429 40.2132C141.163 40.2132 139.309 42.0672 139.309 44.3333V51.5434H136.219V37.1232H139.309V38.418Z" fill="#67CD45"/>
<path d="M155.79 30.9431V37.0938H158.35V40.1838H155.79V51.5434H152.7V40.1838H149.698V37.0938H152.7V30.9431H155.79Z" fill="#67CD45"/>
<path d="M41.2841 40.3015C42.7556 41.4493 43.6973 43.2444 43.6973 45.2456C43.6973 48.7182 40.9015 51.5434 37.4289 51.5434H31.1311V31.6788H37.4289C40.2835 31.6788 42.579 34.0037 42.579 36.8583C42.579 38.1826 42.1081 39.3892 41.2841 40.3015ZM34.1917 34.7395V38.9772H37.4289C38.5766 38.9772 39.5478 38.0355 39.5478 36.8583C39.5478 35.6812 38.5766 34.7395 37.4289 34.7395H34.1917ZM37.4289 48.4828C39.1947 48.4828 40.6367 47.0408 40.6367 45.2456C40.6367 43.4799 39.1947 42.0378 37.4289 42.0378H34.1917V48.4828H37.4289Z" fill="#343636"/>
<path d="M44.8745 51.5434V39.7718H47.9351V51.5434H44.8745ZM44.8745 34.7395V31.6788H47.9351V34.7395H44.8745Z" fill="#343636"/>
<path d="M56.3219 37.1232C60.2948 37.1232 63.532 40.3604 63.532 44.3333C63.532 48.3062 60.2948 51.5434 56.3219 51.5434C52.349 51.5434 49.1118 48.3062 49.1118 44.3333C49.1118 40.3604 52.349 37.1232 56.3219 37.1232ZM56.3219 48.4533C58.588 48.4533 60.442 46.5993 60.442 44.3333C60.442 42.0672 58.588 40.2132 56.3219 40.2132C54.0559 40.2132 52.2019 42.0672 52.2019 44.3333C52.2019 46.5993 54.0559 48.4533 56.3219 48.4533Z" fill="#343636"/>
<path d="M67.7995 30.9431H64.7095V51.5434H67.7995V30.9431Z" fill="#343636"/>
<path d="M68.9768 51.5434V39.7718H72.0374V51.5434H68.9768ZM68.9768 34.7395V31.6788H72.0374V34.7395H68.9768Z" fill="#343636"/>
<path d="M79.3062 30.9431V37.0938H81.8665V40.1838H79.3062V51.5434H76.2161V40.1838H73.2144V37.0938H76.2161V30.9431H79.3062Z" fill="#343636"/>
<path d="M90.2244 37.1821C94.1973 37.1821 97.4051 40.3899 97.4051 44.3628C97.4051 44.8925 97.3462 45.3928 97.2285 45.8931H86.428C87.0166 47.394 88.4881 48.4534 90.2244 48.4534C91.3427 48.4534 92.3727 48.012 93.1379 47.2763L95.2862 49.454C93.9913 50.7489 92.1961 51.5435 90.2244 51.5435C86.7812 51.5435 83.9266 49.1303 83.2203 45.8931C83.1026 45.3928 83.0437 44.8925 83.0437 44.3628C83.0437 40.3899 86.2515 37.1821 90.2244 37.1821ZM86.3986 42.8619H94.0502C93.4321 41.3316 91.9607 40.2722 90.2244 40.2722C88.4881 40.2722 87.0166 41.3316 86.3986 42.8619Z" fill="#343636"/>
<path fill-rule="evenodd" clip-rule="evenodd" d="M43.0292 60.1924V71.7994C47.1741 71.5319 51.1764 70.4343 54.8192 68.6319L49.0176 58.5834C47.1357 59.4271 45.1162 59.9772 43.0292 60.1924ZM25.1712 52.1941L15.1228 57.9953C17.3761 61.378 20.2936 64.3292 23.7495 66.6333L29.5531 56.5817C27.8534 55.3516 26.3789 53.8655 25.1712 52.1941ZM23.1633 32.7303L13.1122 26.9272C12.2224 28.7323 11.4954 30.6507 10.9546 32.6687C10.4138 34.687 10.0842 36.7116 9.95239 38.7199L21.559 38.7203C21.6641 37.703 21.851 36.681 22.1239 35.6617C22.3972 34.6425 22.747 33.6643 23.1633 32.7303ZM39.0176 21.2594V9.65234C34.8727 9.91947 30.8705 11.0167 27.228 12.8195L33.0296 22.8679C34.9111 22.0247 36.931 21.4745 39.0176 21.2594ZM58.2969 14.8181L52.4938 24.87C54.1935 26.0998 55.6675 27.5863 56.8752 29.2577L66.924 23.4561C64.6707 20.0734 61.7533 17.1222 58.2969 14.8181Z" fill="#67CD45"/>
<path fill-rule="evenodd" clip-rule="evenodd" d="M48.3973 14.8781C48.3218 15.4452 48.1496 16.0654 47.9936 16.756C47.9107 17.0999 47.7879 17.4476 47.68 17.8149C47.6224 17.9974 47.5694 18.1856 47.5047 18.3729C47.4334 18.5576 47.3613 18.7456 47.288 18.936C47.142 19.3183 46.9959 19.7145 46.8028 20.1003C46.6172 20.49 46.443 20.8989 46.2121 21.2868C46.1204 21.4503 46.0284 21.6169 45.9348 21.783C46.9053 22.0245 47.9521 21.9584 48.903 21.5472C59.8891 16.7953 49.7589 2.03886 49.7589 2.03886C49.5957 5.99077 45.8951 9.33608 45.8951 9.33608C40.6967 14.5248 41.7694 18.1614 43.4995 20.2601C43.7954 20.619 44.1417 20.92 44.5189 21.166C44.6928 20.9549 44.86 20.7402 45.0259 20.527C45.2931 20.2031 45.5084 19.8518 45.7358 19.5159C45.9711 19.1839 46.1622 18.8361 46.3534 18.4977C46.4496 18.3287 46.5448 18.1621 46.6384 17.9977C46.7262 17.8301 46.8025 17.6602 46.8834 17.4951C47.038 17.1627 47.207 16.8471 47.3356 16.5301C47.5831 15.8932 47.8435 15.3144 47.9992 14.7763C48.1689 14.2429 48.3379 13.7793 48.4252 13.3849C48.6271 12.5998 48.7428 12.1511 48.7428 12.1511C48.7428 12.1511 48.6957 12.6132 48.6133 13.4216C48.5845 13.8303 48.4872 14.3144 48.3973 14.8781Z" fill="#67CD45"/>
<path fill-rule="evenodd" clip-rule="evenodd" d="M22.3463 21.4578C22.8145 21.7866 23.2851 22.2257 23.8256 22.6829C24.0925 22.9152 24.3442 23.1846 24.6203 23.4499C24.7555 23.5853 24.898 23.7192 25.0342 23.8631C25.1651 24.0115 25.2986 24.1624 25.4337 24.3152C25.7054 24.6212 25.9894 24.9337 26.2425 25.2832C26.5024 25.6278 26.7847 25.971 27.0222 26.3549C27.1249 26.5117 27.2302 26.6702 27.3343 26.83C27.9966 26.0806 28.4212 25.1215 28.4956 24.0883C29.3525 12.1492 11.5859 14.3224 11.5859 14.3224C15.0161 16.2916 16.2751 21.1187 16.2751 21.1187C18.4777 28.1254 22.1987 28.8529 24.8592 28.2871C25.3141 28.1903 25.7411 28.0221 26.1334 27.8011C26.0264 27.5494 25.9131 27.302 25.8006 27.0564C25.6366 26.6698 25.4245 26.3166 25.2315 25.9599C25.0456 25.5979 24.8253 25.2678 24.6134 24.9419C24.5079 24.7785 24.404 24.6172 24.3015 24.4583C24.1933 24.303 24.0779 24.1569 23.9688 24.009C23.7453 23.7183 23.5434 23.4227 23.3215 23.1623C22.8709 22.6486 22.4776 22.1505 22.0722 21.764C21.6774 21.3672 21.3442 21.0032 21.0346 20.7437C20.4315 20.2021 20.0869 19.8924 20.0869 19.8924C20.0869 19.8924 20.475 20.1474 21.154 20.5938C21.5033 20.808 21.8877 21.1178 22.3463 21.4578Z" fill="#67CD45"/>
<path fill-rule="evenodd" clip-rule="evenodd" d="M14.9212 47.6523C15.4226 47.3768 16.0241 47.1476 16.6726 46.8636C16.9987 46.7263 17.3514 46.619 17.7112 46.488C17.8923 46.4262 18.0752 46.3572 18.2644 46.2983C18.4554 46.2461 18.6495 46.1927 18.8463 46.1388C19.2407 46.0296 19.6463 45.9122 20.0715 45.8389C20.4953 45.7572 20.9278 45.655 21.3771 45.6108C21.5631 45.5876 21.7518 45.5629 21.9411 45.5398C21.5599 44.6152 20.8859 43.8116 19.9909 43.2898C9.6492 37.2628 3.77631 54.1708 3.77631 54.1708C7.05491 51.9583 11.9431 52.9538 11.9431 52.9538C19.2039 54.0618 21.4956 51.0415 22.1593 48.4037C22.2727 47.9526 22.3097 47.4952 22.2841 47.0457C22.011 47.0309 21.739 47.0236 21.4689 47.0165C21.0496 46.9935 20.6391 47.0284 20.2338 47.0446C19.8269 47.052 19.4336 47.1045 19.0477 47.1512C18.8545 47.174 18.664 47.1962 18.4761 47.2182C18.289 47.247 18.107 47.2863 17.9262 47.3191C17.5668 47.3918 17.2125 47.4429 16.881 47.5274C16.2214 47.7058 15.601 47.8394 15.0754 48.0332C14.5453 48.2129 14.0717 48.3518 13.7024 48.5154C12.9506 48.8185 12.5207 48.9915 12.5207 48.9915C12.5207 48.9915 12.9207 48.7553 13.6205 48.3423C13.9665 48.123 14.414 47.9143 14.9212 47.6523Z" fill="#67CD45"/>
<path fill-rule="evenodd" clip-rule="evenodd" d="M33.55 66.5968C33.6679 66.037 33.8862 65.4314 34.0936 64.7546C34.202 64.4178 34.3506 64.0803 34.4858 63.7221C34.557 63.5445 34.6239 63.3608 34.7025 63.1789C34.7874 63.0001 34.8735 62.818 34.9608 62.6337C35.1351 62.2634 35.3105 61.8793 35.5321 61.509C35.7465 61.1344 35.9508 60.7397 36.2102 60.3703C36.3139 60.2141 36.4181 60.0549 36.524 59.8963C35.5743 59.5826 34.5255 59.57 33.5465 59.9085C22.2346 63.8223 31.2285 79.2976 31.2285 79.2976C31.6878 75.3691 35.6291 72.311 35.6291 72.311C41.2024 67.5272 40.4058 63.8204 38.838 61.5977C38.5699 61.2176 38.2472 60.8914 37.8896 60.6178C37.7003 60.8152 37.5175 61.0168 37.336 61.2169C37.0452 61.5199 36.8042 61.854 36.5522 62.1719C36.2927 62.4853 36.076 62.8178 35.8599 63.1409C35.7513 63.3022 35.6439 63.4612 35.5381 63.618C35.438 63.7786 35.3492 63.9423 35.2562 64.1008C35.077 64.4207 34.8848 64.7227 34.7328 65.0291C34.4381 65.6457 34.1351 66.2033 33.9394 66.7282C33.7301 67.2474 33.5268 67.697 33.4101 68.0837C33.1499 68.8514 33.0008 69.2902 33.0008 69.2902C33.0008 69.2902 33.0824 68.8329 33.2254 68.033C33.2847 67.6276 33.4181 67.1522 33.55 66.5968Z" fill="#67CD45"/>
</svg>
