<svg width="130" height="68" viewBox="0 0 130 68" fill="none" xmlns="http://www.w3.org/2000/svg">
<path d="M90.5929 35.2316L94.4187 25.7389H97.0968L91.932 38.5552L90.5929 41.8789L89.2539 38.5552L84.113 25.7389H86.7911L90.5929 35.2316Z" fill="#67CD45"/>
<path d="M103.887 30.2103C107.115 30.2103 109.722 32.8166 109.722 36.0446C109.722 36.475 109.674 36.8815 109.578 37.288H100.803C101.281 38.5075 102.477 39.3683 103.887 39.3683C104.796 39.3683 105.633 39.0096 106.254 38.4118L108 40.1812C106.948 41.2333 105.489 41.8789 103.887 41.8789C101.09 41.8789 98.7703 39.9182 98.1964 37.288C98.1008 36.8815 98.053 36.475 98.053 36.0446C98.053 32.8166 100.659 30.2103 103.887 30.2103ZM100.779 34.8252H106.996C106.494 33.5818 105.298 32.721 103.887 32.721C102.477 32.721 101.281 33.5818 100.779 34.8252Z" fill="#67CD45"/>
<path d="M113.189 31.2147C114.145 30.5452 115.293 30.1626 116.536 30.1626C118.162 30.1626 119.621 30.8082 120.673 31.8842L118.903 33.6536C118.306 33.0558 117.469 32.6733 116.536 32.6733C114.695 32.6733 113.189 34.1797 113.189 36.0208V41.879H110.678V30.1626H113.189V31.2147Z" fill="#67CD45"/>
<path d="M126.579 25.1411V30.1385H128.659V32.6492H126.579V41.8789H124.068V32.6492H121.629V30.1385H124.068V25.1411H126.579Z" fill="#67CD45"/>
<path d="M33.5435 32.7448C34.7391 33.6774 35.5042 35.1359 35.5042 36.7619C35.5042 39.5834 33.2327 41.8789 30.4112 41.8789H25.2942V25.7389H30.4112C32.7305 25.7389 34.5956 27.6279 34.5956 29.9472C34.5956 31.0232 34.213 32.0036 33.5435 32.7448ZM27.7809 28.2256V31.6688H30.4112C31.3437 31.6688 32.1328 30.9037 32.1328 29.9472C32.1328 28.9908 31.3437 28.2256 30.4112 28.2256H27.7809ZM30.4112 39.3921C31.8458 39.3921 33.0175 38.2205 33.0175 36.7619C33.0175 35.3272 31.8458 34.1556 30.4112 34.1556H27.7809V39.3921H30.4112Z" fill="white"/>
<path d="M36.4607 41.8789V32.3144H38.9474V41.8789H36.4607ZM36.4607 28.2256V25.7389H38.9474V28.2256H36.4607Z" fill="white"/>
<path d="M45.762 30.1626C48.99 30.1626 51.6202 32.7928 51.6202 36.0208C51.6202 39.2488 48.99 41.879 45.762 41.879C42.534 41.879 39.9038 39.2488 39.9038 36.0208C39.9038 32.7928 42.534 30.1626 45.762 30.1626ZM45.762 39.3684C47.6032 39.3684 49.1096 37.862 49.1096 36.0208C49.1096 34.1797 47.6032 32.6733 45.762 32.6733C43.9209 32.6733 42.4145 34.1797 42.4145 36.0208C42.4145 37.862 43.9209 39.3684 45.762 39.3684Z" fill="white"/>
<path d="M55.0876 25.1411H52.5769V41.8789H55.0876V25.1411Z" fill="white"/>
<path d="M56.0439 41.8789V32.3144H58.5307V41.8789H56.0439ZM56.0439 28.2256V25.7389H58.5307V28.2256H56.0439Z" fill="white"/>
<path d="M64.4369 25.1411V30.1385H66.5172V32.6492H64.4369V41.8789H61.9262V32.6492H59.4873V30.1385H61.9262V25.1411H64.4369Z" fill="white"/>
<path d="M73.3079 30.2103C76.5359 30.2103 79.1422 32.8166 79.1422 36.0446C79.1422 36.475 79.0944 36.8815 78.9988 37.288H70.2234C70.7016 38.5075 71.8972 39.3683 73.3079 39.3683C74.2166 39.3683 75.0534 39.0096 75.6751 38.4118L77.4206 40.1812C76.3686 41.2333 74.91 41.8789 73.3079 41.8789C70.5103 41.8789 68.191 39.9182 67.6171 37.288C67.5215 36.8815 67.4736 36.475 67.4736 36.0446C67.4736 32.8166 70.0799 30.2103 73.3079 30.2103ZM70.1995 34.8252H76.4164C75.9142 33.5818 74.7187 32.721 73.3079 32.721C71.8972 32.721 70.7016 33.5818 70.1995 34.8252Z" fill="white"/>
<path fill-rule="evenodd" clip-rule="evenodd" d="M34.9611 48.9065V58.3372C38.3288 58.1198 41.5807 57.228 44.5405 55.7636L39.8267 47.5992C38.2976 48.2846 36.6568 48.7316 34.9611 48.9065ZM20.4515 42.4078L12.2871 47.1213C14.118 49.8698 16.4884 52.2676 19.2964 54.1397L24.0117 45.9728C22.6307 44.9733 21.4328 43.7658 20.4515 42.4078ZM18.8201 26.5935L10.6535 21.8785C9.93055 23.3451 9.33991 24.9038 8.90047 26.5434C8.46104 28.1833 8.19328 29.8283 8.08618 31.4601L17.5166 31.4604C17.6019 30.6338 17.7538 29.8034 17.9755 28.9753C18.1976 28.1471 18.4818 27.3524 18.8201 26.5935ZM31.7017 17.2734V7.84265C28.3339 8.05969 25.0821 8.95117 22.1226 10.416L26.8364 18.5803C28.3651 17.8952 30.0063 17.4482 31.7017 17.2734ZM47.3661 12.0398L42.6511 20.207C44.032 21.2062 45.2297 22.414 46.211 23.772L54.3756 19.0582C52.5448 16.3098 50.1744 13.9119 47.3661 12.0398Z" fill="#67CD45"/>
<path fill-rule="evenodd" clip-rule="evenodd" d="M39.323 12.0884C39.2616 12.5492 39.1217 13.0531 38.9949 13.6142C38.9276 13.8936 38.8278 14.1761 38.7402 14.4746C38.6933 14.6228 38.6503 14.7757 38.5977 14.9279C38.5398 15.078 38.4812 15.2307 38.4217 15.3854C38.3031 15.696 38.1844 16.0179 38.0274 16.3315C37.8766 16.6481 37.7351 16.9803 37.5475 17.2954C37.473 17.4283 37.3983 17.5636 37.3222 17.6986C38.1107 17.8948 38.9612 17.8411 39.7338 17.5071C48.6601 13.6461 40.4293 1.65651 40.4293 1.65651C40.2967 4.86744 37.2899 7.58551 37.2899 7.58551C33.0663 11.8014 33.9378 14.7561 35.3435 16.4613C35.5839 16.7529 35.8653 16.9975 36.1718 17.1973C36.313 17.0258 36.4489 16.8514 36.5837 16.6781C36.8008 16.4149 36.9758 16.1296 37.1605 15.8566C37.3517 15.5869 37.5069 15.3043 37.6623 15.0293C37.7405 14.892 37.8178 14.7566 37.8939 14.6231C37.9652 14.4869 38.0272 14.3488 38.0929 14.2147C38.2186 13.9446 38.3559 13.6882 38.4603 13.4307C38.6615 12.9132 38.873 12.4429 38.9995 12.0057C39.1374 11.5723 39.2747 11.1956 39.3457 10.8752C39.5097 10.2373 39.6037 9.87273 39.6037 9.87273C39.6037 9.87273 39.5655 10.2482 39.4984 10.905C39.4751 11.237 39.396 11.6304 39.323 12.0884Z" fill="#67CD45"/>
<path fill-rule="evenodd" clip-rule="evenodd" d="M18.1563 17.4346C18.5367 17.7017 18.9191 18.0585 19.3583 18.43C19.5751 18.6187 19.7796 18.8377 20.0039 19.0532C20.1138 19.1632 20.2295 19.2719 20.3402 19.3889C20.4466 19.5095 20.555 19.632 20.6648 19.7563C20.8856 20.0049 21.1163 20.2588 21.3219 20.5427C21.5332 20.8227 21.7625 21.1016 21.9555 21.4135C22.0389 21.5409 22.1245 21.6697 22.2091 21.7995C22.7472 21.1906 23.0922 20.4114 23.1526 19.5719C23.8488 9.87136 9.4135 11.6371 9.4135 11.6371C12.2005 13.2371 13.2234 17.1591 13.2234 17.1591C15.0131 22.8521 18.0364 23.4431 20.198 22.9834C20.5677 22.9048 20.9145 22.7681 21.2333 22.5886C21.1464 22.3841 21.0544 22.183 20.9629 21.9834C20.8297 21.6693 20.6573 21.3824 20.5005 21.0925C20.3495 20.7984 20.1705 20.5302 19.9983 20.2655C19.9126 20.1327 19.8282 20.0016 19.7449 19.8725C19.657 19.7463 19.5632 19.6276 19.4745 19.5074C19.293 19.2713 19.1289 19.0311 18.9487 18.8195C18.5825 18.4022 18.263 17.9974 17.9336 17.6834C17.6128 17.3609 17.3421 17.0652 17.0906 16.8544C16.6005 16.4144 16.3205 16.1627 16.3205 16.1627C16.3205 16.1627 16.6359 16.3699 17.1876 16.7326C17.4713 16.9066 17.7837 17.1584 18.1563 17.4346Z" fill="#67CD45"/>
<path fill-rule="evenodd" clip-rule="evenodd" d="M12.1235 38.7176C12.5308 38.4937 13.0196 38.3075 13.5465 38.0768C13.8114 37.9652 14.098 37.878 14.3903 37.7716C14.5375 37.7214 14.6861 37.6653 14.8398 37.6174C14.995 37.5751 15.1527 37.5317 15.3126 37.4878C15.633 37.3991 15.9626 37.3038 16.3081 37.2442C16.6525 37.1778 17.0039 37.0947 17.3689 37.0589C17.52 37.04 17.6733 37.0199 17.8271 37.0012C17.5174 36.2499 16.9698 35.597 16.2426 35.1731C7.83997 30.2761 3.06825 44.0138 3.06825 44.0138C5.73211 42.2162 9.70379 43.025 9.70379 43.025C15.6031 43.9253 17.4652 41.4713 18.0044 39.3281C18.0966 38.9616 18.1266 38.59 18.1058 38.2247C17.8839 38.2127 17.6629 38.2068 17.4435 38.201C17.1028 38.1822 16.7693 38.2107 16.44 38.2238C16.1094 38.2298 15.7898 38.2725 15.4763 38.3104C15.3193 38.3289 15.1645 38.347 15.0118 38.3649C14.8598 38.3882 14.7119 38.4202 14.565 38.4469C14.273 38.5059 13.9851 38.5474 13.7158 38.616C13.1799 38.761 12.6758 38.8696 12.2488 39.0271C11.818 39.1731 11.4333 39.2859 11.1332 39.4189C10.5224 39.6651 10.1731 39.8056 10.1731 39.8056C10.1731 39.8056 10.498 39.6137 11.0666 39.2781C11.3478 39.1 11.7114 38.9304 12.1235 38.7176Z" fill="#67CD45"/>
<path fill-rule="evenodd" clip-rule="evenodd" d="M27.2595 54.11C27.3553 53.6552 27.5326 53.1631 27.7012 52.6132C27.7892 52.3395 27.91 52.0654 28.0198 51.7743C28.0776 51.63 28.132 51.4807 28.1959 51.333C28.2649 51.1877 28.3348 51.0398 28.4058 50.89C28.5474 50.5891 28.6899 50.277 28.8699 49.9762C29.0441 49.6718 29.2101 49.3511 29.4209 49.051C29.5051 48.9241 29.5898 48.7947 29.6758 48.6658C28.9042 48.411 28.0521 48.4007 27.2566 48.6758C18.0657 51.8558 25.3732 64.4294 25.3732 64.4294C25.7464 61.2375 28.9488 58.7528 28.9488 58.7528C33.477 54.8659 32.8298 51.8541 31.556 50.0482C31.3382 49.7394 31.0759 49.4744 30.7854 49.2521C30.6316 49.4125 30.483 49.5762 30.3356 49.7389C30.0993 49.985 29.9035 50.2565 29.6988 50.5148C29.4879 50.7694 29.3119 51.0396 29.1363 51.3021C29.048 51.4331 28.9607 51.5623 28.8748 51.6898C28.7935 51.8203 28.7213 51.9532 28.6457 52.082C28.5002 52.3419 28.344 52.5873 28.2205 52.8363C27.9811 53.3372 27.7348 53.7903 27.5759 54.2168C27.4058 54.6386 27.2406 55.0039 27.1458 55.3181C26.9344 55.9419 26.8133 56.2984 26.8133 56.2984C26.8133 56.2984 26.8796 55.9268 26.9957 55.2769C27.0439 54.9476 27.1523 54.5613 27.2595 54.11Z" fill="#67CD45"/>
</svg>
