<svg width="185" height="187" viewBox="0 0 185 187" fill="none" xmlns="http://www.w3.org/2000/svg">
<g opacity="0.1">
<circle cx="43.7569" cy="3.01314" r="2.65694" transform="rotate(90 43.7569 3.01314)" fill="#595959"/>
<circle cx="140.564" cy="3.01314" r="2.65694" transform="rotate(90 140.564 3.01314)" fill="#595959"/>
<circle cx="43.7569" cy="114.425" r="2.65694" transform="rotate(90 43.7569 114.425)" fill="#595959"/>
<circle cx="140.564" cy="114.425" r="2.65694" transform="rotate(90 140.564 114.425)" fill="#595959"/>
<circle cx="43.7569" cy="58.7182" r="2.65694" transform="rotate(90 43.7569 58.7182)" fill="#595959"/>
<circle cx="140.564" cy="58.7182" r="2.65694" transform="rotate(90 140.564 58.7182)" fill="#595959"/>
<circle cx="43.7569" cy="170.13" r="2.65694" transform="rotate(90 43.7569 170.13)" fill="#595959"/>
<circle cx="140.564" cy="170.13" r="2.65694" transform="rotate(90 140.564 170.13)" fill="#595959"/>
<circle cx="43.7569" cy="30.8657" r="2.65694" transform="rotate(90 43.7569 30.8657)" fill="#595959"/>
<circle cx="140.564" cy="30.8657" r="2.65694" transform="rotate(90 140.564 30.8657)" fill="#595959"/>
<circle cx="43.7569" cy="142.277" r="2.65694" transform="rotate(90 43.7569 142.277)" fill="#595959"/>
<circle cx="140.564" cy="142.277" r="2.65694" transform="rotate(90 140.564 142.277)" fill="#595959"/>
<circle cx="43.7569" cy="86.572" r="2.65694" transform="rotate(90 43.7569 86.572)" fill="#595959"/>
<circle cx="140.564" cy="86.572" r="2.65694" transform="rotate(90 140.564 86.572)" fill="#595959"/>
<circle cx="71.6124" cy="3.01314" r="2.65694" transform="rotate(90 71.6124 3.01314)" fill="#595959"/>
<circle cx="168.417" cy="3.01314" r="2.65694" transform="rotate(90 168.417 3.01314)" fill="#595959"/>
<circle cx="71.6124" cy="114.425" r="2.65694" transform="rotate(90 71.6124 114.425)" fill="#595959"/>
<circle cx="168.417" cy="114.425" r="2.65694" transform="rotate(90 168.417 114.425)" fill="#595959"/>
<circle cx="71.6124" cy="58.7182" r="2.65694" transform="rotate(90 71.6124 58.7182)" fill="#595959"/>
<circle cx="168.417" cy="58.7182" r="2.65694" transform="rotate(90 168.417 58.7182)" fill="#595959"/>
<circle cx="71.6124" cy="170.13" r="2.65694" transform="rotate(90 71.6124 170.13)" fill="#595959"/>
<circle cx="168.417" cy="170.13" r="2.65694" transform="rotate(90 168.417 170.13)" fill="#595959"/>
<circle cx="71.6124" cy="30.8657" r="2.65694" transform="rotate(90 71.6124 30.8657)" fill="#595959"/>
<circle cx="168.417" cy="30.8657" r="2.65694" transform="rotate(90 168.417 30.8657)" fill="#595959"/>
<circle cx="71.6124" cy="142.277" r="2.65694" transform="rotate(90 71.6124 142.277)" fill="#595959"/>
<circle cx="168.417" cy="142.277" r="2.65694" transform="rotate(90 168.417 142.277)" fill="#595959"/>
<circle cx="71.6124" cy="86.572" r="2.65694" transform="rotate(90 71.6124 86.572)" fill="#595959"/>
<circle cx="168.417" cy="86.572" r="2.65694" transform="rotate(90 168.417 86.572)" fill="#595959"/>
<circle cx="16.584" cy="3.01314" r="2.65694" transform="rotate(90 16.584 3.01314)" fill="#595959"/>
<circle cx="113.39" cy="3.01314" r="2.65694" transform="rotate(90 113.39 3.01314)" fill="#595959"/>
<circle cx="16.584" cy="114.425" r="2.65694" transform="rotate(90 16.584 114.425)" fill="#595959"/>
<circle cx="113.39" cy="114.425" r="2.65694" transform="rotate(90 113.39 114.425)" fill="#595959"/>
<circle cx="16.584" cy="58.7182" r="2.65694" transform="rotate(90 16.584 58.7182)" fill="#595959"/>
<circle cx="113.39" cy="58.7182" r="2.65694" transform="rotate(90 113.39 58.7182)" fill="#595959"/>
<circle cx="16.584" cy="170.13" r="2.65694" transform="rotate(90 16.584 170.13)" fill="#595959"/>
<circle cx="113.39" cy="170.13" r="2.65694" transform="rotate(90 113.39 170.13)" fill="#595959"/>
<circle cx="16.584" cy="30.8657" r="2.65694" transform="rotate(90 16.584 30.8657)" fill="#595959"/>
<circle cx="113.39" cy="30.8657" r="2.65694" transform="rotate(90 113.39 30.8657)" fill="#595959"/>
<circle cx="16.584" cy="142.277" r="2.65694" transform="rotate(90 16.584 142.277)" fill="#595959"/>
<circle cx="113.39" cy="142.277" r="2.65694" transform="rotate(90 113.39 142.277)" fill="#595959"/>
<circle cx="16.584" cy="86.572" r="2.65694" transform="rotate(90 16.584 86.572)" fill="#595959"/>
<circle cx="113.39" cy="86.572" r="2.65694" transform="rotate(90 113.39 86.572)" fill="#595959"/>
<circle cx="85.5369" cy="3.01314" r="2.65694" transform="rotate(90 85.5369 3.01314)" fill="#595959"/>
<circle cx="182.343" cy="3.01314" r="2.65694" transform="rotate(90 182.343 3.01314)" fill="#595959"/>
<circle cx="85.5369" cy="114.425" r="2.65694" transform="rotate(90 85.5369 114.425)" fill="#595959"/>
<circle cx="182.343" cy="114.425" r="2.65694" transform="rotate(90 182.343 114.425)" fill="#595959"/>
<circle cx="85.5369" cy="58.7182" r="2.65694" transform="rotate(90 85.5369 58.7182)" fill="#595959"/>
<circle cx="182.343" cy="58.7182" r="2.65694" transform="rotate(90 182.343 58.7182)" fill="#595959"/>
<circle cx="85.5369" cy="170.13" r="2.65694" transform="rotate(90 85.5369 170.13)" fill="#595959"/>
<circle cx="182.343" cy="170.13" r="2.65694" transform="rotate(90 182.343 170.13)" fill="#595959"/>
<circle cx="85.5369" cy="30.8657" r="2.65694" transform="rotate(90 85.5369 30.8657)" fill="#595959"/>
<circle cx="182.343" cy="30.8657" r="2.65694" transform="rotate(90 182.343 30.8657)" fill="#595959"/>
<circle cx="85.5369" cy="142.277" r="2.65694" transform="rotate(90 85.5369 142.277)" fill="#595959"/>
<circle cx="182.343" cy="142.277" r="2.65694" transform="rotate(90 182.343 142.277)" fill="#595959"/>
<circle cx="85.5369" cy="86.572" r="2.65694" transform="rotate(90 85.5369 86.572)" fill="#595959"/>
<circle cx="182.343" cy="86.572" r="2.65694" transform="rotate(90 182.343 86.572)" fill="#595959"/>
<circle cx="29.8323" cy="3.01314" r="2.65694" transform="rotate(90 29.8323 3.01314)" fill="#595959"/>
<circle cx="126.637" cy="3.01314" r="2.65694" transform="rotate(90 126.637 3.01314)" fill="#595959"/>
<circle cx="29.8323" cy="114.425" r="2.65694" transform="rotate(90 29.8323 114.425)" fill="#595959"/>
<circle cx="126.637" cy="114.425" r="2.65694" transform="rotate(90 126.637 114.425)" fill="#595959"/>
<circle cx="29.8323" cy="58.7182" r="2.65694" transform="rotate(90 29.8323 58.7182)" fill="#595959"/>
<circle cx="126.637" cy="58.7182" r="2.65694" transform="rotate(90 126.637 58.7182)" fill="#595959"/>
<circle cx="29.8323" cy="170.13" r="2.65694" transform="rotate(90 29.8323 170.13)" fill="#595959"/>
<circle cx="126.637" cy="170.13" r="2.65694" transform="rotate(90 126.637 170.13)" fill="#595959"/>
<circle cx="29.8323" cy="30.8657" r="2.65694" transform="rotate(90 29.8323 30.8657)" fill="#595959"/>
<circle cx="126.637" cy="30.8657" r="2.65694" transform="rotate(90 126.637 30.8657)" fill="#595959"/>
<circle cx="29.8323" cy="142.277" r="2.65694" transform="rotate(90 29.8323 142.277)" fill="#595959"/>
<circle cx="126.637" cy="142.277" r="2.65694" transform="rotate(90 126.637 142.277)" fill="#595959"/>
<circle cx="29.8323" cy="86.572" r="2.65694" transform="rotate(90 29.8323 86.572)" fill="#595959"/>
<circle cx="126.637" cy="86.572" r="2.65694" transform="rotate(90 126.637 86.572)" fill="#595959"/>
<circle cx="57.6853" cy="3.01314" r="2.65694" transform="rotate(90 57.6853 3.01314)" fill="#595959"/>
<circle cx="154.49" cy="3.01314" r="2.65694" transform="rotate(90 154.49 3.01314)" fill="#595959"/>
<circle cx="57.6853" cy="114.425" r="2.65694" transform="rotate(90 57.6853 114.425)" fill="#595959"/>
<circle cx="154.49" cy="114.425" r="2.65694" transform="rotate(90 154.49 114.425)" fill="#595959"/>
<circle cx="57.6853" cy="58.7182" r="2.65694" transform="rotate(90 57.6853 58.7182)" fill="#595959"/>
<circle cx="154.49" cy="58.7182" r="2.65694" transform="rotate(90 154.49 58.7182)" fill="#595959"/>
<circle cx="57.6853" cy="170.13" r="2.65694" transform="rotate(90 57.6853 170.13)" fill="#595959"/>
<circle cx="154.49" cy="170.13" r="2.65694" transform="rotate(90 154.49 170.13)" fill="#595959"/>
<circle cx="57.6853" cy="30.8657" r="2.65694" transform="rotate(90 57.6853 30.8657)" fill="#595959"/>
<circle cx="154.49" cy="30.8657" r="2.65694" transform="rotate(90 154.49 30.8657)" fill="#595959"/>
<circle cx="57.6853" cy="142.277" r="2.65694" transform="rotate(90 57.6853 142.277)" fill="#595959"/>
<circle cx="154.49" cy="142.277" r="2.65694" transform="rotate(90 154.49 142.277)" fill="#595959"/>
<circle cx="57.6853" cy="86.572" r="2.65694" transform="rotate(90 57.6853 86.572)" fill="#595959"/>
<circle cx="154.49" cy="86.572" r="2.65694" transform="rotate(90 154.49 86.572)" fill="#595959"/>
<circle cx="2.65703" cy="3.01314" r="2.65694" transform="rotate(90 2.65703 3.01314)" fill="#595959"/>
<circle cx="99.4639" cy="3.01314" r="2.65694" transform="rotate(90 99.4639 3.01314)" fill="#595959"/>
<circle cx="2.65703" cy="114.425" r="2.65694" transform="rotate(90 2.65703 114.425)" fill="#595959"/>
<circle cx="99.4639" cy="114.425" r="2.65694" transform="rotate(90 99.4639 114.425)" fill="#595959"/>
<circle cx="2.65703" cy="58.7182" r="2.65694" transform="rotate(90 2.65703 58.7182)" fill="#595959"/>
<circle cx="99.4639" cy="58.7182" r="2.65694" transform="rotate(90 99.4639 58.7182)" fill="#595959"/>
<circle cx="2.65703" cy="170.13" r="2.65694" transform="rotate(90 2.65703 170.13)" fill="#595959"/>
<circle cx="99.4639" cy="170.13" r="2.65694" transform="rotate(90 99.4639 170.13)" fill="#595959"/>
<circle cx="2.65703" cy="30.8657" r="2.65694" transform="rotate(90 2.65703 30.8657)" fill="#595959"/>
<circle cx="99.4639" cy="30.8657" r="2.65694" transform="rotate(90 99.4639 30.8657)" fill="#595959"/>
<circle cx="2.65703" cy="142.277" r="2.65694" transform="rotate(90 2.65703 142.277)" fill="#595959"/>
<circle cx="99.4639" cy="142.277" r="2.65694" transform="rotate(90 99.4639 142.277)" fill="#595959"/>
<circle cx="2.65703" cy="86.572" r="2.65694" transform="rotate(90 2.65703 86.572)" fill="#595959"/>
<circle cx="99.4639" cy="86.572" r="2.65694" transform="rotate(90 99.4639 86.572)" fill="#595959"/>
<circle cx="43.7569" cy="16.9396" r="2.65694" transform="rotate(90 43.7569 16.9396)" fill="#595959"/>
<circle cx="140.564" cy="16.9396" r="2.65694" transform="rotate(90 140.564 16.9396)" fill="#595959"/>
<circle cx="43.7569" cy="128.351" r="2.65694" transform="rotate(90 43.7569 128.351)" fill="#595959"/>
<circle cx="140.564" cy="128.351" r="2.65694" transform="rotate(90 140.564 128.351)" fill="#595959"/>
<circle cx="43.7569" cy="72.6443" r="2.65694" transform="rotate(90 43.7569 72.6443)" fill="#595959"/>
<circle cx="140.564" cy="72.6443" r="2.65694" transform="rotate(90 140.564 72.6443)" fill="#595959"/>
<circle cx="43.7569" cy="184.055" r="2.65694" transform="rotate(90 43.7569 184.055)" fill="#595959"/>
<circle cx="140.564" cy="184.055" r="2.65694" transform="rotate(90 140.564 184.055)" fill="#595959"/>
<circle cx="43.7569" cy="44.7921" r="2.65694" transform="rotate(90 43.7569 44.7921)" fill="#595959"/>
<circle cx="140.564" cy="44.7921" r="2.65694" transform="rotate(90 140.564 44.7921)" fill="#595959"/>
<circle cx="43.7569" cy="156.203" r="2.65694" transform="rotate(90 43.7569 156.203)" fill="#595959"/>
<circle cx="140.564" cy="156.203" r="2.65694" transform="rotate(90 140.564 156.203)" fill="#595959"/>
<circle cx="43.7569" cy="100.497" r="2.65694" transform="rotate(90 43.7569 100.497)" fill="#595959"/>
<circle cx="140.564" cy="100.497" r="2.65694" transform="rotate(90 140.564 100.497)" fill="#595959"/>
<circle cx="71.6124" cy="16.9396" r="2.65694" transform="rotate(90 71.6124 16.9396)" fill="#595959"/>
<circle cx="168.417" cy="16.9396" r="2.65694" transform="rotate(90 168.417 16.9396)" fill="#595959"/>
<circle cx="71.6124" cy="128.351" r="2.65694" transform="rotate(90 71.6124 128.351)" fill="#595959"/>
<circle cx="168.417" cy="128.351" r="2.65694" transform="rotate(90 168.417 128.351)" fill="#595959"/>
<circle cx="71.6124" cy="72.6443" r="2.65694" transform="rotate(90 71.6124 72.6443)" fill="#595959"/>
<circle cx="168.417" cy="72.6443" r="2.65694" transform="rotate(90 168.417 72.6443)" fill="#595959"/>
<circle cx="71.6124" cy="184.055" r="2.65694" transform="rotate(90 71.6124 184.055)" fill="#595959"/>
<circle cx="168.417" cy="184.055" r="2.65694" transform="rotate(90 168.417 184.055)" fill="#595959"/>
<circle cx="71.6124" cy="44.7921" r="2.65694" transform="rotate(90 71.6124 44.7921)" fill="#595959"/>
<circle cx="168.417" cy="44.7921" r="2.65694" transform="rotate(90 168.417 44.7921)" fill="#595959"/>
<circle cx="71.6124" cy="156.203" r="2.65694" transform="rotate(90 71.6124 156.203)" fill="#595959"/>
<circle cx="168.417" cy="156.203" r="2.65694" transform="rotate(90 168.417 156.203)" fill="#595959"/>
<circle cx="71.6124" cy="100.497" r="2.65694" transform="rotate(90 71.6124 100.497)" fill="#595959"/>
<circle cx="168.417" cy="100.497" r="2.65694" transform="rotate(90 168.417 100.497)" fill="#595959"/>
<circle cx="16.584" cy="16.9396" r="2.65694" transform="rotate(90 16.584 16.9396)" fill="#595959"/>
<circle cx="113.39" cy="16.9396" r="2.65694" transform="rotate(90 113.39 16.9396)" fill="#595959"/>
<circle cx="16.584" cy="128.351" r="2.65694" transform="rotate(90 16.584 128.351)" fill="#595959"/>
<circle cx="113.39" cy="128.351" r="2.65694" transform="rotate(90 113.39 128.351)" fill="#595959"/>
<circle cx="16.584" cy="72.6443" r="2.65694" transform="rotate(90 16.584 72.6443)" fill="#595959"/>
<circle cx="113.39" cy="72.6443" r="2.65694" transform="rotate(90 113.39 72.6443)" fill="#595959"/>
<circle cx="16.584" cy="184.055" r="2.65694" transform="rotate(90 16.584 184.055)" fill="#595959"/>
<circle cx="113.39" cy="184.055" r="2.65694" transform="rotate(90 113.39 184.055)" fill="#595959"/>
<circle cx="16.584" cy="44.7921" r="2.65694" transform="rotate(90 16.584 44.7921)" fill="#595959"/>
<circle cx="113.39" cy="44.7921" r="2.65694" transform="rotate(90 113.39 44.7921)" fill="#595959"/>
<circle cx="16.584" cy="156.203" r="2.65694" transform="rotate(90 16.584 156.203)" fill="#595959"/>
<circle cx="113.39" cy="156.203" r="2.65694" transform="rotate(90 113.39 156.203)" fill="#595959"/>
<circle cx="16.584" cy="100.497" r="2.65694" transform="rotate(90 16.584 100.497)" fill="#595959"/>
<circle cx="113.39" cy="100.497" r="2.65694" transform="rotate(90 113.39 100.497)" fill="#595959"/>
<circle cx="85.5369" cy="16.9396" r="2.65694" transform="rotate(90 85.5369 16.9396)" fill="#595959"/>
<circle cx="182.343" cy="16.9396" r="2.65694" transform="rotate(90 182.343 16.9396)" fill="#595959"/>
<circle cx="85.5369" cy="128.351" r="2.65694" transform="rotate(90 85.5369 128.351)" fill="#595959"/>
<circle cx="182.343" cy="128.351" r="2.65694" transform="rotate(90 182.343 128.351)" fill="#595959"/>
<circle cx="85.5369" cy="72.6443" r="2.65694" transform="rotate(90 85.5369 72.6443)" fill="#595959"/>
<circle cx="182.343" cy="72.6443" r="2.65694" transform="rotate(90 182.343 72.6443)" fill="#595959"/>
<circle cx="85.5369" cy="184.055" r="2.65694" transform="rotate(90 85.5369 184.055)" fill="#595959"/>
<circle cx="182.343" cy="184.055" r="2.65694" transform="rotate(90 182.343 184.055)" fill="#595959"/>
<circle cx="85.5369" cy="44.7921" r="2.65694" transform="rotate(90 85.5369 44.7921)" fill="#595959"/>
<circle cx="182.343" cy="44.7921" r="2.65694" transform="rotate(90 182.343 44.7921)" fill="#595959"/>
<circle cx="85.5369" cy="156.203" r="2.65694" transform="rotate(90 85.5369 156.203)" fill="#595959"/>
<circle cx="182.343" cy="156.203" r="2.65694" transform="rotate(90 182.343 156.203)" fill="#595959"/>
<circle cx="85.5369" cy="100.497" r="2.65694" transform="rotate(90 85.5369 100.497)" fill="#595959"/>
<circle cx="182.343" cy="100.497" r="2.65694" transform="rotate(90 182.343 100.497)" fill="#595959"/>
<circle cx="29.8323" cy="16.9396" r="2.65694" transform="rotate(90 29.8323 16.9396)" fill="#595959"/>
<circle cx="126.637" cy="16.9396" r="2.65694" transform="rotate(90 126.637 16.9396)" fill="#595959"/>
<circle cx="29.8323" cy="128.351" r="2.65694" transform="rotate(90 29.8323 128.351)" fill="#595959"/>
<circle cx="126.637" cy="128.351" r="2.65694" transform="rotate(90 126.637 128.351)" fill="#595959"/>
<circle cx="29.8323" cy="72.6443" r="2.65694" transform="rotate(90 29.8323 72.6443)" fill="#595959"/>
<circle cx="126.637" cy="72.6443" r="2.65694" transform="rotate(90 126.637 72.6443)" fill="#595959"/>
<circle cx="29.8323" cy="184.055" r="2.65694" transform="rotate(90 29.8323 184.055)" fill="#595959"/>
<circle cx="126.637" cy="184.055" r="2.65694" transform="rotate(90 126.637 184.055)" fill="#595959"/>
<circle cx="29.8323" cy="44.7921" r="2.65694" transform="rotate(90 29.8323 44.7921)" fill="#595959"/>
<circle cx="126.637" cy="44.7921" r="2.65694" transform="rotate(90 126.637 44.7921)" fill="#595959"/>
<circle cx="29.8323" cy="156.203" r="2.65694" transform="rotate(90 29.8323 156.203)" fill="#595959"/>
<circle cx="126.637" cy="156.203" r="2.65694" transform="rotate(90 126.637 156.203)" fill="#595959"/>
<circle cx="29.8323" cy="100.497" r="2.65694" transform="rotate(90 29.8323 100.497)" fill="#595959"/>
<circle cx="126.637" cy="100.497" r="2.65694" transform="rotate(90 126.637 100.497)" fill="#595959"/>
<circle cx="57.6853" cy="16.9396" r="2.65694" transform="rotate(90 57.6853 16.9396)" fill="#595959"/>
<circle cx="154.49" cy="16.9396" r="2.65694" transform="rotate(90 154.49 16.9396)" fill="#595959"/>
<circle cx="57.6853" cy="128.351" r="2.65694" transform="rotate(90 57.6853 128.351)" fill="#595959"/>
<circle cx="154.49" cy="128.351" r="2.65694" transform="rotate(90 154.49 128.351)" fill="#595959"/>
<circle cx="57.6853" cy="72.6443" r="2.65694" transform="rotate(90 57.6853 72.6443)" fill="#595959"/>
<circle cx="154.49" cy="72.6443" r="2.65694" transform="rotate(90 154.49 72.6443)" fill="#595959"/>
<circle cx="57.6853" cy="184.055" r="2.65694" transform="rotate(90 57.6853 184.055)" fill="#595959"/>
<circle cx="154.49" cy="184.055" r="2.65694" transform="rotate(90 154.49 184.055)" fill="#595959"/>
<circle cx="57.6853" cy="44.7921" r="2.65694" transform="rotate(90 57.6853 44.7921)" fill="#595959"/>
<circle cx="154.49" cy="44.7921" r="2.65694" transform="rotate(90 154.49 44.7921)" fill="#595959"/>
<circle cx="57.6853" cy="156.203" r="2.65694" transform="rotate(90 57.6853 156.203)" fill="#595959"/>
<circle cx="154.49" cy="156.203" r="2.65694" transform="rotate(90 154.49 156.203)" fill="#595959"/>
<circle cx="57.6853" cy="100.497" r="2.65694" transform="rotate(90 57.6853 100.497)" fill="#595959"/>
<circle cx="154.49" cy="100.497" r="2.65694" transform="rotate(90 154.49 100.497)" fill="#595959"/>
<circle cx="2.65703" cy="16.9396" r="2.65694" transform="rotate(90 2.65703 16.9396)" fill="#595959"/>
<circle cx="99.4639" cy="16.9396" r="2.65694" transform="rotate(90 99.4639 16.9396)" fill="#595959"/>
<circle cx="2.65703" cy="128.351" r="2.65694" transform="rotate(90 2.65703 128.351)" fill="#595959"/>
<circle cx="99.4639" cy="128.351" r="2.65694" transform="rotate(90 99.4639 128.351)" fill="#595959"/>
<circle cx="2.65703" cy="72.6443" r="2.65694" transform="rotate(90 2.65703 72.6443)" fill="#595959"/>
<circle cx="99.4639" cy="72.6443" r="2.65694" transform="rotate(90 99.4639 72.6443)" fill="#595959"/>
<circle cx="2.65703" cy="184.055" r="2.65694" transform="rotate(90 2.65703 184.055)" fill="#595959"/>
<circle cx="99.4639" cy="184.055" r="2.65694" transform="rotate(90 99.4639 184.055)" fill="#595959"/>
<circle cx="2.65703" cy="44.7921" r="2.65694" transform="rotate(90 2.65703 44.7921)" fill="#595959"/>
<circle cx="99.4639" cy="44.7921" r="2.65694" transform="rotate(90 99.4639 44.7921)" fill="#595959"/>
<circle cx="2.65703" cy="156.203" r="2.65694" transform="rotate(90 2.65703 156.203)" fill="#595959"/>
<circle cx="99.4639" cy="156.203" r="2.65694" transform="rotate(90 99.4639 156.203)" fill="#595959"/>
<circle cx="2.65703" cy="100.497" r="2.65694" transform="rotate(90 2.65703 100.497)" fill="#595959"/>
<circle cx="99.4639" cy="100.497" r="2.65694" transform="rotate(90 99.4639 100.497)" fill="#595959"/>
</g>
</svg>
