<svg width="72" height="445" viewBox="0 0 72 445" fill="none" xmlns="http://www.w3.org/2000/svg">
<path d="M43.4399 163.881L2.57275 147.411L2.57275 135.881L57.7486 158.116L72.0573 163.881L57.7486 169.646L2.57275 191.778L2.57275 180.248L43.4399 163.881Z" fill="#EEEEEE"/>
<path d="M21.8228 106.647C21.8228 92.7499 33.0432 81.5294 46.9401 81.5294C48.793 81.5294 50.543 81.7353 52.293 82.1471L52.293 119.926C57.5429 117.867 61.2488 112.72 61.2488 106.647C61.2488 102.735 59.7047 99.1322 57.1312 96.4558L64.7487 88.9411C69.2781 93.4705 72.0575 99.7498 72.0575 106.647C72.0575 118.691 63.6164 128.676 52.293 131.147C50.543 131.558 48.793 131.764 46.9401 131.764C33.0432 131.764 21.8228 120.544 21.8228 106.647ZM41.6902 120.029V93.2646C36.3373 95.4264 32.6315 100.573 32.6315 106.647C32.6315 112.72 36.3373 117.867 41.6902 120.029Z" fill="#EEEEEE"/>
<path d="M26.1465 66.603C23.2642 62.4854 21.6172 57.5443 21.6172 52.1914C21.6172 45.1915 24.3966 38.9122 29.0289 34.3828L36.6464 42.0004C34.0729 44.5739 32.4259 48.1768 32.4259 52.1914C32.4259 60.1178 38.9111 66.603 46.8375 66.603H72.0578V77.4117H21.6172V66.603H26.1465Z" fill="#EEEEEE"/>
<path d="M-0.000488281 8.95594H21.514V0.000156403H32.3227L32.3227 8.95594L72.0575 8.95594V19.7646H32.3227V30.2645H21.514V19.7646H-0.000488281L-0.000488281 8.95594Z" fill="#EEEEEE"/>
<path d="M32.7342 409.486C36.7488 404.339 43.0282 401.045 50.0281 401.045C62.175 401.045 72.0573 410.824 72.0573 422.971V445H2.57275L2.57275 422.971C2.57275 412.986 10.705 404.956 20.6902 404.956C25.3225 404.956 29.543 406.603 32.7342 409.486ZM13.2785 434.294H28.1019L28.1019 422.971C28.1019 418.956 24.8078 415.559 20.6902 415.559C16.5726 415.559 13.2785 418.956 13.2785 422.971V434.294ZM61.3515 422.971C61.3515 416.794 56.3074 411.75 50.0281 411.75C43.8517 411.75 38.8076 416.794 38.8076 422.971V434.294H61.3515V422.971Z" fill="#EEEEEE"/>
<path d="M72.0573 396.927H30.8813V386.221H72.0573V396.927ZM13.2785 396.927H2.57275L2.57275 386.221H13.2785L13.2785 396.927Z" fill="#EEEEEE"/>
<path d="M21.6172 356.884C21.6172 342.987 32.9406 331.663 46.8375 331.663C60.7344 331.663 72.0578 342.987 72.0578 356.884C72.0578 370.781 60.7344 382.104 46.8375 382.104C32.9406 382.104 21.6172 370.781 21.6172 356.884ZM61.2491 356.884C61.2491 348.957 54.7639 342.472 46.8375 342.472C38.9111 342.472 32.4259 348.957 32.4259 356.884C32.4259 364.81 38.9111 371.295 46.8375 371.295C54.7639 371.295 61.2491 364.81 61.2491 356.884Z" fill="#EEEEEE"/>
<path d="M-0.000488281 316.737L-0.000488281 327.545H72.0575V316.737H-0.000488281Z" fill="#EEEEEE"/>
<path d="M72.0573 312.619H30.8813V301.913H72.0573V312.619ZM13.2785 312.619H2.57275L2.57275 301.913H13.2785L13.2785 312.619Z" fill="#EEEEEE"/>
<path d="M-0.000488281 276.487H21.514V267.532H32.3227L32.3227 276.487H72.0575V287.296H32.3227V297.796H21.514V287.296H-0.000488281L-0.000488281 276.487Z" fill="#EEEEEE"/>
<path d="M21.8228 238.296C21.8228 224.399 33.0432 213.179 46.9401 213.179C48.793 213.179 50.543 213.385 52.293 213.797L52.293 251.576C57.5429 249.517 61.2488 244.37 61.2488 238.296C61.2488 234.385 59.7047 230.782 57.1312 228.105L64.7487 220.591C69.2781 225.12 72.0575 231.399 72.0575 238.296C72.0575 250.34 63.6164 260.325 52.293 262.796C50.543 263.208 48.793 263.414 46.9401 263.414C33.0432 263.414 21.8228 252.193 21.8228 238.296ZM41.6902 251.679V224.914C36.3373 227.076 32.6315 232.223 32.6315 238.296C32.6315 244.37 36.3373 249.517 41.6902 251.679Z" fill="#EEEEEE"/>
</svg>
